<svg width="661" height="463" viewBox="0 0 661 463" fill="none" xmlns="http://www.w3.org/2000/svg">
<g clip-path="url(#clip0_13:23)">
<path d="M281.209 17.7987C254.34 7.56903 225.947 -0.975991 196.962 0.0982411C154.344 1.67297 113.434 25.6784 93.3992 60.9266C76.4009 90.7915 74.3035 125.796 66.9811 158.938C57.9698 199.765 40.6789 238.578 22.2174 276.524C12.3037 296.91 1.84137 317.735 0.21349 340.08C-2.04238 371.105 13.7914 402.02 38.6242 422.656C63.4571 443.292 96.4354 454.181 129.536 456.555C147.15 457.819 165.556 456.647 181.201 448.968C197.754 440.845 209.82 426.165 226.441 418.157C241.841 410.736 259.858 409.698 277.149 410.662C299.725 411.921 322.011 416.359 343.349 423.846C367.518 432.342 389.991 444.653 414.074 453.271C438.157 461.89 465.13 466.699 489.774 459.509C512.942 452.753 531.233 436.346 547.725 419.732C574.692 392.615 599.409 363.345 621.632 332.213C636.515 311.332 650.367 289.305 656.946 264.97C669.53 218.442 652.214 165.951 613.81 134.176C581.99 107.851 539.287 96.4251 497.486 89.4914C459.368 83.1681 415.293 82.7775 380.205 66.2978C346.745 50.5627 316.297 31.1655 281.209 17.7987Z" fill="white"/>
<path d="M385.68 377.812V399.987H391.979L390.759 376.183L385.68 377.812Z" fill="#AAABB0"/>
<path d="M291.074 373.338V395.513H297.378L296.159 371.709L291.074 373.338Z" fill="#AAABB0"/>
<path d="M401.124 340.788C401.124 338.539 399.305 336.717 397.06 336.717C394.816 336.717 392.997 338.539 392.997 340.788V372.118C392.997 374.366 394.816 376.189 397.06 376.189C399.305 376.189 401.124 374.366 401.124 372.118V340.788Z" fill="#AAABB0"/>
<path d="M296.866 332.035C296.866 329.787 295.047 327.964 292.803 327.964C290.558 327.964 288.739 329.787 288.739 332.035V372.111C288.739 374.36 290.558 376.183 292.803 376.183C295.047 376.183 296.866 374.36 296.866 372.111V332.035Z" fill="#AAABB0"/>
<path d="M411.495 100.508C411.495 100.508 419.622 97.0471 420.841 100.508C422.061 103.969 422.671 133.876 422.671 133.876H414.946L411.495 100.508Z" fill="#AAABB0"/>
<path d="M322.479 100.508C322.479 100.508 314.346 97.0471 313.127 100.508C311.907 103.969 311.298 133.876 311.298 133.876H319.022L322.479 100.508Z" fill="#AAABB0"/>
<path d="M323.693 70.8016L322.473 95.6249H327.961V70.1913L323.693 70.8016Z" fill="#AAABB0"/>
<path d="M319.022 133.876L320.65 98.0664C320.65 98.0664 320.041 90.1317 339.344 92.5731C358.647 95.0146 415.153 99.8974 415.153 99.8974V133.876H319.022Z" fill="#33323D"/>
<path d="M396.252 322.477L393.204 377.202C393.204 377.202 348.489 402.025 294.226 378.423L299.104 320.847L396.252 322.477Z" fill="#33323D"/>
<path d="M353.775 107.014L354.787 142.415H417.793L414.135 95.6249L353.775 107.014Z" fill="#444053"/>
<path d="M360.177 299.076H300.829V374.351H360.177V299.076Z" fill="#4C4981"/>
<path d="M338.332 329.801C338.332 329.801 346.867 323.087 348.288 325.12C349.708 327.152 343.215 335.905 340.569 334.886C337.923 333.866 338.332 329.801 338.332 329.801Z" fill="#FFB9B9"/>
<path d="M575.234 131.838H185.658V327.152H575.234V131.838Z" fill="#504F60"/>
<path d="M319.224 69.3795C319.224 69.3795 316.175 40.8941 319.224 37.4394C322.272 33.9848 373.487 1.22073 420.841 39.6733C420.841 39.6733 425.31 39.8809 424.5 50.0494C424.022 56.4853 424.054 62.9489 424.597 69.3795C424.597 69.3795 322.681 76.7038 319.224 69.3795Z" fill="#33323D"/>
<path opacity="0.1" d="M319.224 69.3795C319.224 69.3795 316.175 40.8941 319.224 37.4394C322.272 33.9848 373.487 1.22073 420.841 39.6733C420.841 39.6733 425.31 39.8809 424.5 50.0494C424.022 56.4853 424.054 62.9489 424.597 69.3795C424.597 69.3795 322.681 76.7038 319.224 69.3795Z" fill="black"/>
<path d="M319.224 73.0417C319.224 73.0417 316.175 44.5562 319.224 41.1016C322.272 37.6469 373.487 4.88288 420.841 43.3355C420.841 43.3355 425.31 43.543 424.5 53.7116C424.022 60.1474 424.054 66.611 424.597 73.0417C424.597 73.0417 322.681 80.366 319.224 73.0417Z" fill="#33323D"/>
<path d="M426.329 60.0227C426.329 60.0227 429.578 72.2299 428.566 74.2624C427.554 76.2949 427.737 81.9956 427.737 81.9956C427.737 81.9956 427.957 85.6578 426.329 86.0606C424.701 86.4634 423.28 86.671 424.597 87.8917C425.914 89.1124 424.597 90.9435 424.597 90.9435C424.597 90.9435 423.884 93.7939 424.597 95.6249C425.31 97.456 420.427 98.219 420.841 100.508C421.256 102.797 422.622 109.254 420.841 109.462C419.061 109.669 421.451 117.598 419.848 117.598C418.244 117.598 417.104 131.838 417.104 131.838C417.104 131.838 405.825 122.279 398.307 124.922C398.307 124.922 398.917 116.987 401.356 114.137C403.794 111.287 403.057 103.969 403.057 103.969L415.153 67.5484L426.329 60.0227Z" fill="#4C4981"/>
<path d="M365.969 228.347C363.329 231.271 360.482 215.658 360.482 215.658C360.482 215.658 352.964 226.034 348.087 219.119C344.709 214.328 347.373 200.753 349.306 192.873C350.172 189.37 350.903 186.99 350.903 186.99L361.878 185.158C361.878 185.158 361.914 187.551 362.158 190.456C362.488 194.381 363.201 199.252 364.719 200.417C367.396 202.438 368.615 225.399 365.969 228.347Z" fill="#AE6E79"/>
<path opacity="0.1" d="M360.28 45.5755C360.28 45.5755 341.173 45.3741 336.502 55.5427C331.832 65.7113 331.625 69.1781 329.796 70.8016C327.967 72.4252 349.708 80.9763 349.708 80.9763L350.727 115.968C350.727 115.968 354.994 111.641 361.902 113.6C368.81 115.559 377.553 113.6 377.553 113.6C377.553 113.6 377.145 112.861 382.839 113.6C388.534 114.339 406.617 104.78 406.617 104.78C406.617 104.78 406.916 89.4725 406.514 86.2132C406.111 82.9539 419.415 59.0034 419.415 59.0034C419.415 59.0034 429.779 49.0362 419.012 45.5755C419.012 45.5755 415.202 39.8259 405.398 39.8809C395.594 39.9358 360.28 45.5755 360.28 45.5755Z" fill="black"/>
<path d="M360.28 44.9651C360.28 44.9651 341.173 44.7637 336.502 54.9323C331.832 65.1009 331.625 68.5677 329.796 70.1913C327.967 71.8148 349.708 80.366 349.708 80.366L350.727 115.358C350.727 115.358 354.994 111.03 361.902 112.99C368.81 114.949 377.553 112.99 377.553 112.99C377.553 112.99 377.145 112.251 382.839 112.99C388.534 113.728 406.617 104.17 406.617 104.17C406.617 104.17 413.726 92.5731 413.324 89.3199C412.921 86.0667 427.548 61.4448 427.548 61.4448C427.548 61.4448 429.786 48.4259 419.012 44.9651C419.012 44.9651 415.202 39.2156 405.398 39.2705C395.594 39.3254 360.28 44.9651 360.28 44.9651Z" fill="#4C4981"/>
<path opacity="0.1" d="M362.207 190.438C358.018 189.132 351.446 192.013 349.355 192.88C350.221 189.376 350.952 186.996 350.952 186.996L361.927 185.165C361.927 185.165 361.945 187.557 362.207 190.438Z" fill="black"/>
<path d="M335.685 70.1913H329.796C329.796 70.1913 328.576 82.606 329.796 86.2681C331.015 89.9303 331.625 89.3993 331.216 92.1093C330.808 94.8193 334.064 98.9697 334.064 98.9697C334.064 98.9697 334.466 109.199 336.503 113.008C338.539 116.817 334.265 133.894 334.265 133.894C335.431 136.843 337.155 139.537 339.344 141.829C342.801 145.284 344.63 158.101 343.612 162.984C342.593 167.867 346.459 169.698 346.459 169.698C346.459 169.698 348.087 192.489 348.696 192.489C349.306 192.489 361.091 186.385 364.75 191.671L361.902 170.717L362.11 130.232C362.11 130.232 358.244 125.142 360.281 120.668C362.317 116.194 358.653 105.61 358.653 105.61L353.367 82.0139L335.685 70.1913Z" fill="#4C4981"/>
<path d="M299.104 391.85C299.104 391.85 290.568 390.019 290.367 391.85C290.166 393.682 280.203 412.401 292.604 417.894C305.006 423.388 338.124 435.186 391.985 419.927C391.985 419.927 395.435 421.148 394.624 413.622C393.814 406.096 393.814 397.753 393.814 397.753C393.814 397.753 385.68 395.513 379.583 396.33C373.486 397.148 320.443 407.927 299.104 391.85Z" fill="#33323D"/>
<path opacity="0.1" d="M299.104 391.85C299.104 391.85 290.568 390.019 290.367 391.85C290.166 393.682 280.203 412.401 292.604 417.894C305.006 423.388 338.124 435.186 391.985 419.927C391.985 419.927 395.435 421.148 394.624 413.622C393.814 406.096 393.814 397.753 393.814 397.753C393.814 397.753 385.68 395.513 379.583 396.33C373.486 397.148 320.443 407.927 299.104 391.85Z" fill="black"/>
<path d="M299.104 389.409C299.104 389.409 290.568 387.578 290.367 389.409C290.166 391.24 280.203 409.96 292.604 415.453C305.006 420.946 338.124 432.745 391.985 417.486C391.985 417.486 395.435 418.706 394.624 411.181C393.814 403.655 393.814 395.311 393.814 395.311C393.814 395.311 385.68 393.071 379.583 393.889C373.486 394.707 320.443 405.486 299.104 389.409Z" fill="#33323D"/>
<path d="M348.879 77.5034C348.355 80.488 347.166 83.3567 346.983 86.378C346.8 89.3993 347.965 92.8356 350.751 94.0197C351.528 94.2522 352.282 94.5588 353.001 94.9352C354.074 95.6616 354.513 97.0288 354.738 98.3105C355.038 99.9653 355.11 101.653 354.952 103.328C354.799 105.012 354.44 106.825 355.269 108.296C356.726 110.902 360.524 110.518 363.414 109.785L362.421 117.494C362.341 118.104 362.293 118.794 362.738 119.209C362.948 119.357 363.186 119.462 363.437 119.517C363.688 119.571 363.948 119.574 364.201 119.527C366.713 119.368 369.298 119.02 371.45 117.696C373.602 116.371 375.206 113.905 374.797 111.421C374.322 108.54 371.346 106.251 371.749 103.358C372.06 101.118 374.249 99.696 375.687 97.9748C378.291 94.8254 378.431 90.0402 376.389 86.4757C374.346 82.9112 370.401 80.7017 366.341 80.2988C364.091 80.073 361.75 80.3477 359.634 79.5664C358.898 79.2961 358.234 78.859 357.695 78.2894C357.156 77.7198 356.755 77.0329 356.525 76.2827" fill="#444053"/>
<path d="M277.972 348.924L280.1 344.285C280.1 344.285 291.586 333.573 294.226 332.823C296.866 332.072 307.639 328.8 309.267 328.8C310.895 328.8 340.569 327.171 340.569 327.171L344.02 335.313L306.78 343.498L294.226 352.653L277.972 348.924Z" fill="#767D9F"/>
<path d="M367.444 224.002L365.5 238.986L364.75 244.754L356.013 245.975C356.013 245.975 355.068 243.948 353.732 240.835C349.678 231.387 342.045 211.904 346.471 208.541C352.355 204.061 353.787 218.917 353.787 218.917L360.494 215.658L367.444 224.002Z" fill="#FFB9B9"/>
<path d="M365.987 251.877H321.864V318.607H365.987V251.877Z" fill="white"/>
<path opacity="0.1" d="M365.987 251.877H321.864V318.607H365.987V251.877Z" fill="black"/>
<path d="M385.819 255.49L342.169 249.03L332.42 315.043L376.069 321.503L385.819 255.49Z" fill="white"/>
<path d="M368.745 258.651L346.278 255.325L341.261 289.301L363.728 292.626L368.745 258.651Z" fill="#6C63FF"/>
<path d="M366.072 302.998L338.852 298.97L337.762 306.348L364.982 310.377L366.072 302.998Z" fill="#6C63FF"/>
<path opacity="0.1" d="M377.553 83.5154C391.638 83.5154 403.057 72.0847 403.057 57.9841C403.057 43.8835 391.638 32.4528 377.553 32.4528C363.468 32.4528 352.05 43.8835 352.05 57.9841C352.05 72.0847 363.468 83.5154 377.553 83.5154Z" fill="black"/>
<path d="M377.553 82.9051C391.638 82.9051 403.057 71.4743 403.057 57.3737C403.057 43.2732 391.638 31.8424 377.553 31.8424C363.468 31.8424 352.05 43.2732 352.05 57.3737C352.05 71.4743 363.468 82.9051 377.553 82.9051Z" fill="#AE6E79"/>
<path d="M356.525 76.2949C356.351 75.6372 356.414 74.9396 356.702 74.3234C357.671 72.3031 360.433 72.1261 362.67 72.2299C367.932 72.474 373.706 72.5045 377.821 69.1781C379.529 67.8109 381.437 64.3746 383.918 65.0276C386.125 65.6075 387.046 68.6043 389.345 69.2696C391.009 69.7518 392.734 68.9828 394.429 68.6593C396.868 68.1771 399.368 68.5799 401.843 68.5982C404.319 68.6165 407.007 68.1466 408.696 66.3338C410.977 63.8924 410.605 60.0776 410.403 56.7329C410.153 52.4123 410.446 48.0774 411.275 43.8299C412.104 39.6062 413.379 34.882 411.05 31.2626C408.83 27.8141 404.233 26.868 401.093 24.2251C398.155 21.7837 396.6 17.8713 393.497 15.6069C389.588 12.7565 384.278 13.1654 379.474 13.6598L369.048 14.7707C366.359 15.0576 363.561 15.381 361.347 16.9863C357.354 19.8794 356.805 25.8914 353.025 29.0592C351.342 30.463 349.19 31.1588 347.27 32.2086C345.349 33.2585 343.496 34.9186 343.276 37.0915C343.093 38.9226 344.081 40.6133 344.563 42.3772C345.703 46.5887 343.922 50.9222 342.782 55.1642C341.642 59.4062 341.423 64.5577 344.733 67.3714C345.404 67.9451 346.184 68.3846 346.837 68.9828C349.074 71.0275 349.379 74.476 348.861 77.4545" fill="#444053"/>
<path d="M379.632 89.265C379.969 89.265 380.242 88.5818 380.242 87.7391C380.242 86.8964 379.969 86.2132 379.632 86.2132C379.295 86.2132 379.022 86.8964 379.022 87.7391C379.022 88.5818 379.295 89.265 379.632 89.265Z" fill="#444053"/>
<path d="M379.632 95.6249C379.969 95.6249 380.242 94.9418 380.242 94.099C380.242 93.2563 379.969 92.5731 379.632 92.5731C379.295 92.5731 379.022 93.2563 379.022 94.099C379.022 94.9418 379.295 95.6249 379.632 95.6249Z" fill="#444053"/>
<path d="M366.109 228.305C366.762 227.554 367.195 225.625 367.444 223.08L360.177 214.01C360.177 214.01 363.256 231.595 366.109 228.305Z" fill="#AE6E79"/>
<path opacity="0.1" d="M374.303 378.221C374.303 378.221 362.378 396.678 325.119 394.701C290.019 392.87 272.887 375.578 273.704 369.475C274.521 363.371 271.466 348.515 278.984 344.242C283.343 341.77 289.08 343.235 293.129 344.908C294.527 345.476 296.058 345.637 297.544 345.37C299.03 345.103 300.41 344.42 301.524 343.4C305.225 340.061 312.127 336.302 323.022 339.262C324.424 339.636 325.903 339.609 327.29 339.183C331.826 337.797 342.624 335.392 350.458 340.733C351.697 341.587 353.152 342.071 354.655 342.129C356.158 342.186 357.646 341.814 358.945 341.056L359.055 340.989C362.713 338.749 379.785 359.91 379.785 359.91C379.785 359.91 380.602 376.189 374.303 378.221Z" fill="black"/>
<path d="M374.303 378.831C374.303 378.831 362.378 397.289 325.119 395.311C290.019 393.48 272.887 376.189 273.704 370.085C274.521 363.981 271.466 349.125 278.984 344.853C283.343 342.381 289.08 343.846 293.129 345.518C294.527 346.087 296.058 346.247 297.544 345.98C299.03 345.713 300.41 345.03 301.524 344.011C305.225 340.672 312.127 336.912 323.022 339.872C324.424 340.247 325.903 340.219 327.29 339.793C331.826 338.407 342.624 336.003 350.458 341.343C351.697 342.198 353.152 342.682 354.655 342.739C356.158 342.796 357.646 342.424 358.945 341.667L359.055 341.6C362.713 339.36 379.785 360.521 379.785 360.521C379.785 360.521 380.602 376.799 374.303 378.831Z" fill="#767D9F"/>
<path opacity="0.1" d="M325.119 386.058C338.535 386.058 349.41 375.171 349.41 361.741C349.41 348.312 338.535 337.425 325.119 337.425C311.704 337.425 300.829 348.312 300.829 361.741C300.829 375.171 311.704 386.058 325.119 386.058Z" fill="black"/>
<path d="M325.119 386.669C338.535 386.669 349.41 375.782 349.41 362.352C349.41 348.922 338.535 338.035 325.119 338.035C311.704 338.035 300.829 348.922 300.829 362.352C300.829 375.782 311.704 386.669 325.119 386.669Z" fill="#FFB9B9"/>
<path d="M318.157 341.331C315.608 342.021 313.096 343.339 311.852 345.506C311.103 346.812 310.84 348.381 309.755 349.467C308.219 351.011 305.628 351.042 303.548 351.909C301.469 352.775 300.098 355.827 302.134 356.791C300.012 356.901 298.439 358.86 298.177 360.808C297.915 362.755 298.653 364.696 299.366 366.551C301.695 372.557 304.201 378.825 309.334 383.098C317.699 390.068 330.308 389.745 341.545 389.006C342.463 389.037 343.373 388.826 344.185 388.396C345.404 387.59 345.556 386.046 345.758 384.691C346.605 378.905 349.739 373.65 351.787 368.126C353.836 362.602 354.677 356.114 351.227 351.225C346.148 343.974 326.705 339.012 318.157 341.331Z" fill="#B96B6B"/>
<path opacity="0.1" d="M365.5 238.986L364.75 244.754L356.013 245.975C356.013 245.975 355.068 243.948 353.732 240.835L365.359 238.65L365.5 238.986Z" fill="black"/>
<path d="M374.706 366.423L379.791 360.521L378.773 327.97C379.273 325.622 379.614 323.242 379.791 320.847C379.992 317.387 377.248 309.66 377.248 309.66C377.674 308.113 378.252 306.612 378.974 305.179C380.193 302.738 377.254 297.245 377.254 297.245C377.254 297.245 372.877 283.005 374.706 275.882C376.535 268.759 374.261 264.694 374.261 264.694C374.261 264.694 372.474 256.76 372.676 253.506C372.877 250.253 368.609 247.195 368.609 247.195L365.359 239.261L352.354 241.702V269.168C352.354 269.168 353.165 295.414 352.354 300.504C351.544 305.595 353.976 310.471 353.976 310.471C353.976 310.471 352.556 317.997 353.775 320.847C354.994 323.698 357.433 330.613 357.433 330.613C356.98 333.085 357.121 335.628 357.842 338.035C359.061 341.6 357.842 343.632 357.842 343.632L374.706 366.423Z" fill="#767D9F"/>
<g opacity="0.1">
<path opacity="0.1" d="M411.294 41.8218C410.606 45.3946 410.298 49.0302 410.373 52.6679C410.425 49.6431 410.741 46.6287 411.318 43.659C411.854 40.949 412.537 38.0315 412.391 35.3276C412.166 37.5139 411.8 39.6832 411.294 41.8218Z" fill="black"/>
<path opacity="0.1" d="M346.855 67.0174C346.203 66.4071 345.422 65.9798 344.752 65.4C342.971 63.8802 342.221 61.6768 342.075 59.2964C341.898 62.3482 342.52 65.3023 344.752 67.231C345.422 67.8109 346.203 68.2503 346.855 68.8485C348.219 70.1995 349.009 72.025 349.062 73.945C349.239 71.3815 348.721 68.7142 346.855 67.0174Z" fill="black"/>
<path opacity="0.1" d="M344.91 44.2266C345.017 42.9375 344.905 41.6395 344.581 40.3875C344.227 39.0813 343.593 37.8056 343.361 36.4934C343.361 36.6337 343.313 36.7802 343.294 36.9328C343.118 38.7639 344.105 40.4546 344.581 42.2185C344.756 42.8755 344.866 43.5481 344.91 44.2266Z" fill="black"/>
<path opacity="0.1" d="M408.715 64.3257C407.026 66.1568 404.337 66.6085 401.862 66.5902C399.386 66.5718 396.88 66.169 394.448 66.6573C392.753 66.9991 391.027 67.762 389.363 67.2677C387.064 66.6024 386.144 63.6055 383.943 63.0257C381.437 62.3665 379.529 65.8028 377.846 67.17C373.73 70.4659 367.957 70.4354 362.695 70.2218C360.457 70.118 357.695 70.295 356.732 72.3214C356.438 72.9359 356.375 73.6358 356.555 74.2929L349.105 75.4648C349.077 76.0788 349.009 76.6904 348.904 77.2959L356.555 76.0751C356.375 75.4181 356.438 74.7181 356.732 74.1037C357.695 72.0773 360.457 71.9003 362.695 72.004C367.957 72.2482 373.73 72.2787 377.846 68.9522C379.553 67.585 381.461 64.1487 383.943 64.8079C386.144 65.3816 387.064 68.3846 389.363 69.0499C391.027 69.526 392.753 68.763 394.448 68.4395C396.887 67.9513 399.386 68.3541 401.862 68.3724C404.337 68.3907 407.026 67.9207 408.715 66.108C410.403 64.2952 410.647 61.5913 410.544 58.9546C410.471 60.9993 410.05 62.8914 408.715 64.3257Z" fill="black"/>
</g>
<g opacity="0.1">
<path opacity="0.1" d="M352.275 93.6413C351.557 93.2627 350.804 92.9561 350.026 92.7257C348.702 92.1238 347.652 91.0483 347.081 89.7106C347.538 91.8163 348.696 93.7328 350.635 94.5568C351.413 94.7872 352.167 95.0938 352.885 95.4723C353.344 95.797 353.715 96.2313 353.964 96.7358C353.72 95.5395 353.275 94.3188 352.275 93.6413Z" fill="black"/>
<path opacity="0.1" d="M362.689 108.491C359.878 109.205 356.208 109.578 354.665 107.191C354.713 107.766 354.879 108.325 355.153 108.833C356.47 111.183 359.689 111.104 362.427 110.524L362.689 108.491Z" fill="black"/>
<path opacity="0.1" d="M374.078 110.164C374.468 112.642 372.858 115.114 370.725 116.414C368.591 117.714 365.987 118.074 363.475 118.245C363.076 118.297 362.67 118.25 362.292 118.111C362.178 118.369 362.141 118.654 362.186 118.933C362.231 119.212 362.357 119.471 362.547 119.68C362.737 119.888 362.984 120.037 363.257 120.107C363.53 120.178 363.818 120.167 364.085 120.076C366.597 119.917 369.182 119.569 371.334 118.245C373.486 116.92 375.096 114.455 374.681 111.97C374.564 111.343 374.361 110.735 374.078 110.164Z" fill="black"/>
<path opacity="0.1" d="M376.785 88.0687C377.157 89.5527 377.186 91.1021 376.869 92.5989C376.552 94.0957 375.898 95.5002 374.956 96.7053C373.517 98.4509 371.328 99.8486 371.017 102.089C370.913 103.118 371.126 104.155 371.627 105.061C371.572 104.683 371.572 104.298 371.627 103.92C371.938 101.68 374.127 100.258 375.566 98.5363C377.931 95.6738 378.26 91.4562 376.785 88.0687Z" fill="black"/>
</g>
<g opacity="0.1">
<path opacity="0.1" d="M303.555 352.848C305.628 351.988 308.219 351.957 309.761 350.407C310.847 349.321 311.109 347.752 311.859 346.452C313.078 344.279 315.608 342.967 318.157 342.277C326.692 339.958 346.154 344.914 351.227 352.098C352.713 354.271 353.524 356.837 353.556 359.471C353.751 356.43 352.934 353.41 351.233 350.883C346.16 343.699 326.717 338.743 318.163 341.062C315.614 341.752 313.102 343.064 311.865 345.237C311.115 346.537 310.853 348.106 309.767 349.192C308.225 350.737 305.634 350.767 303.561 351.634C301.982 352.287 300.811 354.216 301.238 355.51C301.408 354.924 301.703 354.383 302.103 353.924C302.503 353.464 302.999 353.097 303.555 352.848Z" fill="black"/>
<path opacity="0.1" d="M298.189 361.717C298.445 359.764 300.018 357.811 302.146 357.701C301.923 357.608 301.723 357.465 301.562 357.285C301.4 357.104 301.281 356.89 301.213 356.657C300.404 356.958 299.692 357.475 299.155 358.152C298.618 358.828 298.275 359.639 298.165 360.496C298.107 360.993 298.107 361.495 298.165 361.992C298.189 361.9 298.189 361.809 298.189 361.717Z" fill="black"/>
</g>
<path d="M427.341 140.529H371.859V212.96H427.341V140.529Z" fill="white"/>
<path opacity="0.1" d="M427.341 140.529H371.859V212.96H427.341V140.529Z" fill="black"/>
<path d="M448.539 144.778L393.86 154.194L406.125 225.577L460.804 216.161L448.539 144.778Z" fill="white"/>
<path d="M419.959 200.644L407.112 202.856L409.994 219.626L422.84 217.414L419.959 200.644Z" fill="#6C63FF"/>
<path d="M437.735 197.579L424.889 199.791L427.77 216.562L440.617 214.35L437.735 197.579Z" fill="#6C63FF"/>
<path d="M450.298 173.009L405.245 180.754L408.135 197.6L453.187 189.856L450.298 173.009Z" fill="#6C63FF"/>
<path d="M446.542 152.902L401.49 160.647L402.135 164.406L447.187 156.661L446.542 152.902Z" fill="#6C63FF"/>
<path d="M448.02 159.816L402.968 167.561L403.612 171.319L448.665 163.575L448.02 159.816Z" fill="#6C63FF"/>
<path d="M403.057 120.851C403.057 120.851 377.553 146.486 390.357 152.999C403.16 159.511 411.495 131.331 411.495 131.331L413.519 124.922L403.057 120.851Z" fill="#AE6E79"/>
<path opacity="0.1" d="M400.825 118.587L397.673 125.557C397.673 125.557 413.22 127.742 416.47 132.448L414.543 120.149L412.257 114.9L400.825 118.587Z" fill="black"/>
<path d="M401.435 117.976L398.283 124.947C398.283 124.947 413.83 127.132 417.08 131.838L415.153 119.539L412.867 114.29L401.435 117.976Z" fill="#4C4981"/>
<path d="M495.547 246.133L495.212 246.365L495.675 246.573L496.175 246.53L496.236 246.182L495.547 246.133Z" fill="#464A5F"/>
<path opacity="0.1" d="M495.547 246.133L495.212 246.365L495.675 246.573L496.175 246.53L496.236 246.182L495.547 246.133Z" fill="black"/>
<path d="M495.547 246.133L495.206 246.353L494.938 246.023L495.102 245.755L495.255 245.706L495.547 246.133Z" fill="#9C9CA1"/>
<path opacity="0.1" d="M495.547 246.133L495.206 246.353L494.938 246.023L495.102 245.755L495.255 245.706L495.547 246.133Z" fill="black"/>
<path d="M555.559 203.951L530.599 167.861C530.377 167.539 530.095 167.263 529.768 167.051C529.44 166.838 529.074 166.692 528.69 166.621C528.306 166.55 527.912 166.556 527.53 166.638C527.148 166.72 526.786 166.876 526.465 167.098L470.824 205.331C470.173 205.778 469.726 206.466 469.581 207.243C469.436 208.02 469.604 208.823 470.05 209.475L494.944 246.023L555.559 203.951Z" fill="#9C9CA1"/>
<path opacity="0.1" d="M555.559 203.951L530.599 167.861C530.377 167.539 530.095 167.263 529.768 167.051C529.44 166.838 529.074 166.692 528.69 166.621C528.306 166.55 527.912 166.556 527.53 166.638C527.148 166.72 526.786 166.876 526.465 167.098L470.824 205.331C470.173 205.778 469.726 206.466 469.581 207.243C469.436 208.02 469.604 208.823 470.05 209.475L494.944 246.023L555.559 203.951Z" fill="black"/>
<path d="M556.169 204.037L531.208 167.946C530.987 167.624 530.704 167.349 530.376 167.136C530.048 166.923 529.681 166.777 529.296 166.706C528.912 166.635 528.517 166.641 528.135 166.723C527.753 166.805 527.39 166.961 527.068 167.183L471.434 205.441C470.783 205.888 470.336 206.575 470.19 207.352C470.044 208.128 470.21 208.931 470.653 209.585L495.547 246.152L556.169 204.037Z" fill="#9C9CA1"/>
<path d="M577.033 211.172L556.303 204.507L495.675 246.579L516.734 253.476C517.205 253.629 517.706 253.67 518.196 253.596C518.686 253.522 519.152 253.335 519.557 253.049L577.204 212.301C577.312 212.24 577.399 212.148 577.453 212.037C577.507 211.925 577.527 211.8 577.508 211.678C577.49 211.555 577.434 211.441 577.349 211.351C577.264 211.26 577.154 211.198 577.033 211.172Z" fill="#464A5F"/>
<path opacity="0.1" d="M577.033 211.172L556.303 204.507L495.675 246.579L516.734 253.476C517.205 253.629 517.706 253.67 518.196 253.596C518.686 253.522 519.152 253.335 519.557 253.049L577.204 212.301C577.312 212.24 577.399 212.148 577.453 212.037C577.507 211.925 577.527 211.8 577.508 211.678C577.49 211.555 577.434 211.441 577.349 211.351C577.264 211.26 577.154 211.198 577.033 211.172Z" fill="black"/>
<path d="M576.905 210.751L556.175 204.08L495.547 246.152L516.606 253.037C517.077 253.193 517.577 253.236 518.068 253.163C518.558 253.089 519.024 252.902 519.429 252.615L577.076 211.868C577.179 211.806 577.262 211.714 577.314 211.604C577.366 211.494 577.383 211.372 577.365 211.252C577.347 211.132 577.293 211.021 577.211 210.931C577.129 210.842 577.023 210.779 576.905 210.751Z" fill="#464A5F"/>
<g opacity="0.1">
<path opacity="0.1" d="M546.378 202.426L544.847 200.228C544.755 200.101 544.618 200.014 544.463 199.985C544.309 199.957 544.149 199.989 544.018 200.076L541.744 201.595C541.616 201.686 541.528 201.821 541.497 201.975C541.467 202.128 541.496 202.287 541.579 202.419L542.988 204.586C543.076 204.716 543.21 204.807 543.364 204.84C543.517 204.873 543.677 204.845 543.811 204.763L546.207 203.256C546.337 203.166 546.428 203.03 546.46 202.875C546.491 202.72 546.462 202.559 546.378 202.426Z" fill="black"/>
<path opacity="0.1" d="M542.293 205.258L540.756 203.066C540.664 202.939 540.527 202.852 540.372 202.824C540.218 202.795 540.058 202.827 539.927 202.914L537.659 204.446C537.53 204.535 537.441 204.67 537.409 204.824C537.377 204.977 537.406 205.137 537.488 205.27L538.897 207.437C538.984 207.567 539.118 207.659 539.271 207.694C539.425 207.728 539.585 207.701 539.72 207.62L542.122 206.112C542.19 206.068 542.248 206.01 542.293 205.943C542.339 205.876 542.37 205.8 542.386 205.721C542.402 205.641 542.402 205.559 542.386 205.48C542.37 205.4 542.338 205.325 542.293 205.258Z" fill="black"/>
<path opacity="0.1" d="M538 208.23L536.464 206.039C536.372 205.911 536.234 205.824 536.08 205.796C535.925 205.768 535.766 205.8 535.635 205.886L533.36 207.418C533.231 207.509 533.142 207.645 533.111 207.8C533.08 207.955 533.111 208.116 533.196 208.248L534.604 210.415C534.692 210.545 534.827 210.636 534.98 210.669C535.134 210.702 535.294 210.674 535.427 210.592L537.823 209.085C537.892 209.041 537.951 208.984 537.997 208.917C538.043 208.85 538.075 208.774 538.091 208.695C538.108 208.615 538.108 208.533 538.093 208.453C538.077 208.373 538.046 208.298 538 208.23Z" fill="black"/>
<path opacity="0.1" d="M533.653 211.245L532.117 209.048C532.025 208.922 531.889 208.836 531.735 208.808C531.582 208.78 531.424 208.811 531.294 208.895L529.02 210.433C528.892 210.524 528.804 210.659 528.773 210.813C528.742 210.966 528.772 211.125 528.855 211.257L530.263 213.424C530.35 213.553 530.484 213.644 530.635 213.678C530.787 213.712 530.946 213.687 531.08 213.607L533.482 212.094C533.549 212.049 533.607 211.992 533.652 211.925C533.697 211.859 533.728 211.784 533.744 211.705C533.76 211.626 533.76 211.545 533.744 211.466C533.729 211.387 533.698 211.312 533.653 211.245Z" fill="black"/>
<path opacity="0.1" d="M529.312 214.254L527.776 212.063C527.684 211.936 527.546 211.849 527.392 211.82C527.237 211.792 527.078 211.824 526.947 211.911L524.678 213.443C524.55 213.532 524.46 213.667 524.429 213.82C524.397 213.974 524.425 214.133 524.508 214.267L525.916 216.433C526.003 216.564 526.138 216.656 526.291 216.69C526.444 216.724 526.605 216.698 526.739 216.616L529.141 215.103C529.208 215.058 529.266 215.001 529.311 214.935C529.356 214.868 529.387 214.793 529.403 214.714C529.419 214.635 529.419 214.554 529.403 214.475C529.388 214.396 529.357 214.321 529.312 214.254Z" fill="black"/>
<path opacity="0.1" d="M525.16 217.538L523.252 214.816C523.232 214.786 523.205 214.76 523.175 214.74C523.145 214.719 523.111 214.706 523.075 214.699C523.039 214.692 523.003 214.692 522.967 214.7C522.931 214.707 522.898 214.722 522.868 214.743L520.075 216.629C520.044 216.648 520.018 216.674 519.997 216.704C519.977 216.734 519.962 216.768 519.955 216.804C519.947 216.84 519.947 216.877 519.954 216.913C519.961 216.949 519.976 216.983 519.996 217.013L521.746 219.705C521.786 219.767 521.848 219.81 521.92 219.826C521.992 219.842 522.067 219.829 522.13 219.79L525.081 217.959C525.116 217.939 525.147 217.911 525.171 217.878C525.194 217.845 525.21 217.807 525.218 217.767C525.226 217.727 525.224 217.686 525.214 217.646C525.204 217.607 525.186 217.57 525.16 217.538Z" fill="black"/>
<path opacity="0.1" d="M520.819 220.547L518.899 217.825C518.878 217.794 518.851 217.768 518.82 217.748C518.789 217.728 518.755 217.714 518.719 217.707C518.682 217.7 518.645 217.701 518.609 217.709C518.573 217.716 518.539 217.731 518.508 217.752L515.716 219.638C515.656 219.68 515.615 219.743 515.601 219.815C515.588 219.887 515.603 219.961 515.643 220.022L517.393 222.714C517.411 222.746 517.436 222.774 517.466 222.795C517.496 222.817 517.53 222.833 517.566 222.841C517.602 222.849 517.639 222.849 517.676 222.842C517.712 222.835 517.746 222.82 517.777 222.799L520.722 220.968C520.759 220.951 520.792 220.925 520.819 220.892C520.845 220.86 520.863 220.822 520.873 220.781C520.882 220.741 520.882 220.699 520.873 220.658C520.864 220.618 520.845 220.58 520.819 220.547Z" fill="black"/>
<path opacity="0.1" d="M516.972 223.214L515.064 220.517C515.021 220.458 514.957 220.418 514.885 220.405C514.813 220.393 514.74 220.409 514.679 220.449L511.887 222.329C511.826 222.371 511.783 222.436 511.769 222.509C511.754 222.582 511.768 222.657 511.808 222.72L513.558 225.412C513.599 225.472 513.661 225.515 513.733 225.531C513.804 225.547 513.879 225.535 513.942 225.497L516.893 223.666C516.933 223.647 516.969 223.618 516.996 223.582C517.023 223.547 517.041 223.505 517.049 223.461C517.057 223.417 517.054 223.371 517.04 223.328C517.027 223.285 517.004 223.246 516.972 223.214Z" fill="black"/>
<path opacity="0.1" d="M512.667 226.193L510.759 223.471C510.716 223.412 510.652 223.372 510.581 223.359C510.509 223.347 510.435 223.363 510.375 223.404L507.583 225.283C507.552 225.304 507.525 225.33 507.504 225.361C507.484 225.391 507.469 225.426 507.462 225.462C507.454 225.499 507.454 225.536 507.461 225.572C507.469 225.609 507.483 225.643 507.503 225.674L509.253 228.366C509.294 228.426 509.357 228.469 509.428 228.485C509.5 228.501 509.575 228.489 509.637 228.451L512.588 226.62C512.624 226.599 512.654 226.571 512.678 226.537C512.702 226.504 512.718 226.465 512.726 226.425C512.733 226.384 512.732 226.342 512.722 226.302C512.712 226.262 512.693 226.225 512.667 226.193Z" fill="black"/>
<path opacity="0.1" d="M508.497 229.062L506.589 226.339C506.569 226.309 506.543 226.283 506.512 226.263C506.482 226.243 506.448 226.229 506.412 226.222C506.376 226.215 506.34 226.216 506.304 226.223C506.268 226.231 506.235 226.245 506.205 226.266L503.412 228.152C503.382 228.172 503.355 228.198 503.334 228.228C503.314 228.258 503.299 228.292 503.292 228.328C503.285 228.364 503.284 228.401 503.291 228.436C503.298 228.472 503.313 228.506 503.333 228.537L505.083 231.228C505.123 231.29 505.186 231.334 505.257 231.35C505.329 231.366 505.405 231.353 505.467 231.314L508.418 229.483C508.453 229.463 508.484 229.435 508.508 229.402C508.531 229.369 508.548 229.331 508.555 229.291C508.563 229.251 508.561 229.209 508.551 229.17C508.541 229.13 508.523 229.093 508.497 229.062Z" fill="black"/>
<path opacity="0.1" d="M504.327 231.979L502.437 229.251C502.394 229.192 502.33 229.152 502.258 229.139C502.187 229.127 502.113 229.143 502.053 229.184L499.26 231.064C499.229 231.084 499.203 231.11 499.182 231.141C499.161 231.172 499.147 231.206 499.139 231.242C499.132 231.279 499.132 231.316 499.139 231.352C499.146 231.389 499.16 231.423 499.181 231.454L500.931 234.146C500.972 234.207 501.035 234.249 501.106 234.265C501.177 234.281 501.252 234.269 501.315 234.231L504.266 232.4C504.3 232.379 504.329 232.35 504.351 232.316C504.373 232.282 504.387 232.244 504.393 232.204C504.399 232.164 504.396 232.123 504.384 232.084C504.373 232.045 504.353 232.01 504.327 231.979Z" fill="black"/>
<path opacity="0.1" d="M500.157 234.866L498.248 232.144C498.228 232.114 498.202 232.088 498.172 232.068C498.141 232.047 498.107 232.034 498.072 232.027C498.036 232.02 497.999 232.02 497.963 232.028C497.928 232.035 497.894 232.05 497.864 232.071L495.072 233.944C495.041 233.964 495.015 233.99 494.994 234.02C494.973 234.05 494.959 234.084 494.951 234.12C494.944 234.156 494.944 234.193 494.951 234.229C494.958 234.265 494.972 234.299 494.992 234.329L496.742 237.021C496.782 237.083 496.845 237.126 496.917 237.142C496.989 237.158 497.064 237.145 497.126 237.106L500.077 235.275C500.111 235.255 500.14 235.228 500.162 235.195C500.185 235.163 500.2 235.127 500.208 235.088C500.215 235.05 500.214 235.01 500.206 234.972C500.197 234.933 500.18 234.898 500.157 234.866Z" fill="black"/>
<path opacity="0.1" d="M543.634 198.452L542.097 196.255C542.005 196.127 541.868 196.04 541.713 196.012C541.559 195.984 541.399 196.016 541.268 196.102L539.018 197.64C538.89 197.73 538.8 197.865 538.769 198.018C538.737 198.172 538.765 198.331 538.848 198.464L540.256 200.631C540.344 200.761 540.479 200.852 540.632 200.885C540.786 200.918 540.946 200.89 541.079 200.808L543.481 199.301C543.614 199.208 543.704 199.067 543.733 198.908C543.761 198.749 543.726 198.585 543.634 198.452Z" fill="black"/>
<path opacity="0.1" d="M537.628 189.767L536.092 187.557C536 187.431 535.864 187.346 535.711 187.317C535.558 187.289 535.4 187.32 535.269 187.405L532.995 188.937C532.866 189.026 532.777 189.161 532.745 189.314C532.713 189.468 532.741 189.628 532.824 189.761L534.232 191.927C534.32 192.058 534.454 192.15 534.607 192.184C534.761 192.218 534.921 192.192 535.055 192.11L537.458 190.603C537.59 190.513 537.681 190.376 537.713 190.22C537.745 190.063 537.715 189.901 537.628 189.767Z" fill="black"/>
<path opacity="0.1" d="M539.543 201.284L538.006 199.093C537.915 198.967 537.778 198.881 537.625 198.853C537.472 198.825 537.314 198.856 537.183 198.94L534.909 200.472C534.781 200.562 534.693 200.698 534.663 200.852C534.632 201.005 534.661 201.164 534.744 201.296L536.147 203.463C536.234 203.594 536.368 203.686 536.522 203.72C536.675 203.754 536.836 203.728 536.97 203.646L539.372 202.139C539.44 202.094 539.498 202.037 539.544 201.97C539.589 201.902 539.621 201.827 539.637 201.747C539.652 201.668 539.652 201.586 539.636 201.506C539.62 201.427 539.588 201.351 539.543 201.284Z" fill="black"/>
<path opacity="0.1" d="M535.251 204.257L533.714 202.065C533.622 201.938 533.485 201.851 533.33 201.823C533.176 201.794 533.016 201.826 532.885 201.913L530.617 203.427C530.487 203.516 530.396 203.652 530.364 203.807C530.332 203.962 530.362 204.123 530.446 204.257L531.855 206.423C531.943 206.553 532.077 206.644 532.231 206.677C532.384 206.71 532.544 206.683 532.678 206.6L535.08 205.093C535.212 205.003 535.304 204.866 535.335 204.71C535.367 204.553 535.337 204.391 535.251 204.257Z" fill="black"/>
<path opacity="0.1" d="M530.903 207.272L529.373 205.075C529.281 204.947 529.144 204.86 528.989 204.832C528.835 204.803 528.675 204.836 528.544 204.922L526.27 206.478C526.142 206.568 526.054 206.704 526.023 206.857C525.993 207.011 526.022 207.17 526.105 207.302L527.514 209.469C527.602 209.599 527.736 209.69 527.89 209.723C528.043 209.756 528.203 209.728 528.337 209.646L530.733 208.139C530.802 208.094 530.862 208.036 530.909 207.968C530.955 207.9 530.987 207.823 531.003 207.742C531.019 207.661 531.019 207.577 531.002 207.497C530.984 207.416 530.951 207.339 530.903 207.272Z" fill="black"/>
<path opacity="0.1" d="M533.635 192.739L532.098 190.548C532.007 190.422 531.87 190.336 531.717 190.308C531.564 190.28 531.406 190.311 531.275 190.395L529.001 191.927C528.873 192.017 528.783 192.152 528.751 192.305C528.72 192.459 528.748 192.618 528.83 192.751L530.239 194.918C530.326 195.049 530.46 195.141 530.614 195.175C530.767 195.209 530.928 195.183 531.062 195.101L533.464 193.594C533.532 193.549 533.59 193.492 533.636 193.425C533.681 193.357 533.713 193.282 533.729 193.202C533.745 193.123 533.745 193.041 533.728 192.961C533.712 192.882 533.681 192.806 533.635 192.739Z" fill="black"/>
<path opacity="0.1" d="M529.343 195.718L527.806 193.52C527.714 193.393 527.577 193.306 527.422 193.278C527.268 193.249 527.108 193.281 526.977 193.368L524.709 194.882C524.58 194.971 524.491 195.106 524.459 195.259C524.427 195.413 524.456 195.572 524.538 195.706L525.947 197.872C526.035 198.002 526.169 198.093 526.323 198.126C526.476 198.159 526.636 198.131 526.77 198.049L529.172 196.542C529.301 196.453 529.39 196.317 529.422 196.164C529.454 196.01 529.425 195.851 529.343 195.718Z" fill="black"/>
<path opacity="0.1" d="M524.996 198.727L523.459 196.536C523.368 196.409 523.232 196.322 523.079 196.292C522.926 196.263 522.767 196.293 522.636 196.377L520.362 197.933C520.234 198.023 520.146 198.159 520.115 198.312C520.085 198.466 520.114 198.625 520.197 198.757L521.606 200.924C521.693 201.055 521.827 201.147 521.98 201.181C522.134 201.215 522.294 201.189 522.429 201.107L524.825 199.594C524.894 199.549 524.954 199.491 525.001 199.423C525.047 199.355 525.08 199.278 525.096 199.197C525.111 199.116 525.111 199.032 525.094 198.951C525.076 198.871 525.043 198.794 524.996 198.727Z" fill="black"/>
<path opacity="0.1" d="M526.562 210.281L525.026 208.09C524.935 207.963 524.799 207.876 524.646 207.846C524.493 207.817 524.334 207.847 524.203 207.931L521.947 209.469C521.819 209.559 521.731 209.695 521.701 209.848C521.67 210.002 521.699 210.161 521.782 210.293L523.166 212.46C523.254 212.589 523.387 212.68 523.539 212.714C523.69 212.748 523.85 212.723 523.983 212.643L526.386 211.129C526.453 211.085 526.511 211.029 526.557 210.962C526.602 210.896 526.634 210.821 526.651 210.742C526.667 210.663 526.668 210.582 526.653 210.503C526.637 210.423 526.607 210.348 526.562 210.281Z" fill="black"/>
<path opacity="0.1" d="M522.221 213.29L520.685 211.099C520.593 210.971 520.455 210.884 520.301 210.856C520.146 210.827 519.987 210.86 519.856 210.946L517.588 212.478C517.459 212.567 517.37 212.703 517.338 212.856C517.306 213.009 517.334 213.169 517.417 213.302L518.825 215.469C518.913 215.6 519.047 215.692 519.2 215.726C519.354 215.76 519.514 215.734 519.648 215.652L522.051 214.144C522.119 214.1 522.177 214.043 522.222 213.975C522.268 213.908 522.299 213.833 522.315 213.753C522.331 213.674 522.331 213.592 522.315 213.512C522.299 213.433 522.267 213.357 522.221 213.29Z" fill="black"/>
<path opacity="0.1" d="M518.069 216.574L516.161 213.851C516.141 213.821 516.115 213.795 516.084 213.775C516.054 213.755 516.02 213.741 515.984 213.734C515.949 213.728 515.912 213.728 515.876 213.735C515.841 213.743 515.807 213.757 515.777 213.778L512.985 215.664C512.954 215.684 512.927 215.71 512.907 215.74C512.886 215.77 512.872 215.804 512.864 215.84C512.857 215.876 512.857 215.913 512.864 215.948C512.871 215.984 512.885 216.018 512.905 216.049L514.655 218.74C514.674 218.772 514.7 218.799 514.73 218.82C514.759 218.841 514.793 218.856 514.829 218.864C514.865 218.872 514.902 218.873 514.938 218.866C514.974 218.86 515.009 218.846 515.039 218.826L517.99 216.995C518.026 216.975 518.056 216.947 518.08 216.914C518.104 216.881 518.12 216.843 518.127 216.803C518.135 216.763 518.134 216.721 518.124 216.682C518.114 216.642 518.095 216.605 518.069 216.574Z" fill="black"/>
<path opacity="0.1" d="M514.222 219.241L512.314 216.513C512.271 216.454 512.207 216.414 512.135 216.401C512.064 216.389 511.99 216.405 511.93 216.445L509.143 218.325C509.082 218.368 509.04 218.432 509.025 218.505C509.01 218.578 509.024 218.653 509.064 218.716L510.814 221.408C510.855 221.468 510.918 221.511 510.989 221.527C511.06 221.543 511.135 221.531 511.198 221.493L514.149 219.662C514.186 219.643 514.218 219.616 514.242 219.582C514.266 219.549 514.283 219.51 514.29 219.47C514.297 219.429 514.294 219.387 514.283 219.347C514.271 219.308 514.25 219.271 514.222 219.241Z" fill="black"/>
<path opacity="0.1" d="M509.918 222.22L508.009 219.497C507.967 219.438 507.903 219.398 507.831 219.386C507.759 219.373 507.686 219.389 507.625 219.43L504.833 221.31C504.802 221.33 504.776 221.356 504.755 221.386C504.734 221.416 504.72 221.45 504.712 221.486C504.705 221.521 504.705 221.558 504.712 221.594C504.719 221.63 504.733 221.664 504.754 221.695L506.503 224.392C506.545 224.453 506.607 224.496 506.679 224.512C506.75 224.527 506.825 224.515 506.888 224.478L509.839 222.647C509.874 222.626 509.905 222.598 509.929 222.564C509.952 222.53 509.968 222.492 509.976 222.451C509.983 222.411 509.982 222.369 509.972 222.329C509.962 222.289 509.944 222.252 509.918 222.22Z" fill="black"/>
<path opacity="0.1" d="M505.747 225.113L503.839 222.39C503.819 222.36 503.793 222.334 503.762 222.314C503.732 222.294 503.698 222.28 503.662 222.273C503.627 222.266 503.59 222.267 503.554 222.274C503.519 222.282 503.485 222.296 503.455 222.317L500.663 224.179C500.632 224.199 500.605 224.224 500.585 224.254C500.564 224.285 500.55 224.319 500.542 224.354C500.535 224.39 500.535 224.427 500.542 224.463C500.549 224.499 500.563 224.533 500.583 224.563L502.333 227.255C502.373 227.317 502.436 227.36 502.508 227.376C502.58 227.392 502.655 227.379 502.717 227.34L505.668 225.509C505.7 225.489 505.727 225.462 505.749 225.431C505.77 225.4 505.785 225.365 505.792 225.328C505.799 225.291 505.799 225.253 505.792 225.216C505.784 225.179 505.769 225.144 505.747 225.113Z" fill="black"/>
<path opacity="0.1" d="M532.391 200.125L530.855 197.933C530.763 197.808 530.626 197.722 530.473 197.693C530.32 197.665 530.162 197.696 530.032 197.781L527.757 199.319C527.63 199.409 527.542 199.545 527.511 199.698C527.48 199.851 527.51 200.011 527.593 200.143L529.001 202.31C529.089 202.438 529.223 202.527 529.375 202.56C529.526 202.593 529.685 202.567 529.818 202.487L532.22 200.979C532.288 200.935 532.347 200.877 532.392 200.81C532.437 200.743 532.469 200.667 532.485 200.588C532.501 200.508 532.501 200.426 532.485 200.347C532.469 200.267 532.437 200.192 532.391 200.125Z" fill="black"/>
<path opacity="0.1" d="M528.044 203.14L526.508 200.942C526.416 200.815 526.278 200.728 526.124 200.699C525.969 200.671 525.81 200.703 525.678 200.79L523.41 202.328C523.282 202.417 523.192 202.552 523.16 202.706C523.129 202.859 523.157 203.019 523.24 203.152L524.648 205.319C524.735 205.449 524.869 205.541 525.023 205.576C525.176 205.61 525.337 205.583 525.471 205.502L527.873 203.988C527.94 203.944 527.998 203.887 528.043 203.82C528.088 203.753 528.119 203.678 528.135 203.599C528.151 203.521 528.151 203.439 528.135 203.36C528.12 203.282 528.089 203.207 528.044 203.14Z" fill="black"/>
<path opacity="0.1" d="M523.709 206.149L522.173 203.958C522.081 203.83 521.943 203.743 521.789 203.715C521.634 203.686 521.475 203.719 521.343 203.805L519.069 205.337C518.942 205.427 518.853 205.563 518.823 205.716C518.792 205.869 518.821 206.029 518.905 206.161L520.313 208.328C520.4 208.459 520.535 208.551 520.688 208.585C520.841 208.619 521.002 208.592 521.136 208.511L523.532 206.997C523.6 206.953 523.658 206.896 523.703 206.83C523.749 206.764 523.781 206.689 523.797 206.61C523.814 206.531 523.814 206.45 523.799 206.37C523.784 206.291 523.753 206.216 523.709 206.149Z" fill="black"/>
<path opacity="0.1" d="M519.362 209.158L517.826 206.967C517.734 206.841 517.597 206.755 517.444 206.727C517.291 206.698 517.133 206.729 517.002 206.814L514.728 208.346C514.601 208.436 514.512 208.572 514.482 208.725C514.451 208.878 514.48 209.038 514.564 209.17L515.972 211.361C516.059 211.49 516.192 211.581 516.344 211.615C516.496 211.649 516.655 211.624 516.789 211.544L519.191 210.037C519.263 209.992 519.324 209.934 519.372 209.865C519.419 209.795 519.452 209.717 519.468 209.635C519.484 209.552 519.483 209.467 519.465 209.385C519.447 209.303 519.412 209.226 519.362 209.158Z" fill="black"/>
<path opacity="0.1" d="M515.24 212.442L513.332 209.719C513.312 209.689 513.286 209.663 513.255 209.643C513.225 209.623 513.191 209.609 513.155 209.602C513.12 209.595 513.083 209.596 513.047 209.603C513.012 209.611 512.978 209.625 512.948 209.646L510.156 211.532C510.095 211.573 510.052 211.636 510.038 211.708C510.023 211.78 510.037 211.855 510.076 211.917L511.826 214.614C511.846 214.645 511.872 214.672 511.902 214.692C511.932 214.713 511.966 214.728 512.002 214.735C512.037 214.742 512.074 214.743 512.11 214.735C512.146 214.728 512.18 214.714 512.21 214.694L515.161 212.863C515.197 212.843 515.227 212.815 515.251 212.782C515.275 212.749 515.291 212.711 515.298 212.671C515.306 212.63 515.305 212.589 515.295 212.55C515.285 212.51 515.266 212.473 515.24 212.442Z" fill="black"/>
<path opacity="0.1" d="M511.369 215.109L509.461 212.381C509.417 212.321 509.352 212.281 509.279 212.269C509.206 212.256 509.132 212.272 509.07 212.313L506.284 214.193C506.223 214.235 506.18 214.3 506.166 214.373C506.151 214.445 506.165 214.521 506.205 214.584L507.955 217.276C507.995 217.337 508.057 217.381 508.129 217.397C508.201 217.413 508.276 217.4 508.339 217.361L511.29 215.53C511.325 215.51 511.356 215.482 511.379 215.449C511.403 215.416 511.419 215.378 511.427 215.338C511.434 215.298 511.433 215.256 511.423 215.217C511.413 215.177 511.395 215.14 511.369 215.109Z" fill="black"/>
<path opacity="0.1" d="M507.064 218.075L505.156 215.347C505.112 215.288 505.047 215.247 504.974 215.235C504.902 215.222 504.827 215.238 504.766 215.28L501.974 217.16C501.914 217.203 501.872 217.267 501.857 217.339C501.843 217.412 501.856 217.487 501.894 217.55L503.65 220.242C503.69 220.304 503.753 220.347 503.825 220.363C503.897 220.379 503.972 220.366 504.034 220.327L506.979 218.496C507.016 218.478 507.048 218.451 507.073 218.418C507.098 218.385 507.115 218.347 507.123 218.306C507.131 218.266 507.13 218.224 507.12 218.184C507.11 218.144 507.091 218.107 507.064 218.075Z" fill="black"/>
<path opacity="0.1" d="M502.894 220.98L500.986 218.258C500.965 218.228 500.938 218.202 500.907 218.182C500.877 218.161 500.842 218.147 500.806 218.141C500.77 218.134 500.732 218.134 500.696 218.142C500.66 218.149 500.626 218.164 500.596 218.185L497.803 220.071C497.743 220.113 497.702 220.177 497.689 220.248C497.675 220.32 497.69 220.395 497.73 220.456L499.48 223.147C499.498 223.179 499.523 223.207 499.553 223.229C499.583 223.25 499.617 223.266 499.653 223.274C499.689 223.282 499.727 223.282 499.763 223.275C499.799 223.268 499.834 223.254 499.864 223.233L502.809 221.402C502.845 221.383 502.877 221.356 502.902 221.323C502.927 221.29 502.945 221.252 502.953 221.212C502.961 221.171 502.96 221.129 502.95 221.089C502.94 221.049 502.921 221.012 502.894 220.98Z" fill="black"/>
<path opacity="0.1" d="M501.577 228L499.669 225.277C499.626 225.218 499.562 225.179 499.49 225.166C499.419 225.154 499.345 225.169 499.285 225.21L496.492 227.09C496.462 227.11 496.435 227.136 496.414 227.166C496.394 227.196 496.379 227.23 496.372 227.266C496.364 227.302 496.364 227.338 496.371 227.374C496.378 227.41 496.393 227.444 496.413 227.475L498.163 230.172C498.204 230.233 498.267 230.276 498.338 230.292C498.409 230.308 498.484 230.295 498.547 230.258L501.498 228.427C501.533 228.406 501.564 228.378 501.588 228.344C501.612 228.31 501.628 228.272 501.635 228.231C501.643 228.191 501.642 228.149 501.631 228.109C501.621 228.069 501.603 228.032 501.577 228Z" fill="black"/>
<path opacity="0.1" d="M497.407 230.893L495.499 228.171C495.478 228.14 495.452 228.114 495.422 228.094C495.392 228.074 495.358 228.06 495.322 228.053C495.286 228.047 495.249 228.047 495.214 228.054C495.178 228.062 495.144 228.077 495.114 228.097L492.322 229.983C492.291 230.003 492.265 230.029 492.244 230.059C492.223 230.089 492.209 230.123 492.202 230.159C492.194 230.195 492.194 230.232 492.201 230.267C492.208 230.303 492.222 230.337 492.243 230.368L493.993 233.059C494.033 233.121 494.095 233.165 494.167 233.181C494.239 233.197 494.314 233.184 494.377 233.145L497.328 231.314C497.363 231.294 497.394 231.266 497.417 231.233C497.441 231.2 497.457 231.162 497.465 231.122C497.472 231.082 497.471 231.04 497.461 231.001C497.451 230.961 497.433 230.924 497.407 230.893Z" fill="black"/>
<path opacity="0.1" d="M503.955 213.595L502.126 211.032C502.068 210.952 501.982 210.898 501.885 210.881C501.789 210.864 501.689 210.885 501.608 210.94L498.974 212.716C498.933 212.743 498.897 212.778 498.87 212.819C498.843 212.86 498.823 212.906 498.814 212.954C498.804 213.002 498.804 213.052 498.814 213.1C498.824 213.148 498.843 213.194 498.87 213.235L500.516 215.768C500.542 215.81 500.575 215.846 500.615 215.875C500.655 215.903 500.7 215.924 500.748 215.934C500.796 215.945 500.845 215.946 500.893 215.938C500.941 215.929 500.987 215.911 501.028 215.884L503.815 214.132C503.861 214.108 503.901 214.074 503.933 214.033C503.965 213.992 503.989 213.945 504.002 213.894C504.015 213.844 504.018 213.791 504.01 213.74C504.002 213.688 503.983 213.639 503.955 213.595Z" fill="black"/>
<path opacity="0.1" d="M499.785 216.488L497.986 213.925C497.959 213.884 497.923 213.849 497.882 213.823C497.841 213.796 497.795 213.777 497.747 213.768C497.699 213.759 497.65 213.76 497.602 213.77C497.554 213.78 497.508 213.799 497.468 213.827L494.834 215.634C494.793 215.66 494.758 215.695 494.731 215.735C494.703 215.775 494.684 215.821 494.675 215.868C494.665 215.916 494.665 215.965 494.674 216.013C494.684 216.061 494.703 216.106 494.73 216.146L496.376 218.685C496.43 218.767 496.514 218.825 496.609 218.847C496.705 218.869 496.805 218.852 496.889 218.801L499.675 217.05C499.722 217.023 499.763 216.986 499.794 216.942C499.826 216.898 499.848 216.847 499.858 216.794C499.868 216.741 499.867 216.686 499.855 216.633C499.842 216.58 499.818 216.531 499.785 216.488Z" fill="black"/>
<path opacity="0.1" d="M495.614 219.381L493.816 216.812C493.758 216.732 493.672 216.678 493.575 216.661C493.478 216.644 493.379 216.665 493.297 216.72L490.664 218.496C490.623 218.523 490.587 218.558 490.56 218.599C490.532 218.64 490.513 218.686 490.504 218.734C490.494 218.782 490.494 218.832 490.504 218.88C490.513 218.928 490.532 218.974 490.56 219.015L492.206 221.548C492.232 221.59 492.265 221.626 492.305 221.655C492.345 221.683 492.39 221.704 492.438 221.715C492.485 221.725 492.535 221.726 492.583 221.718C492.631 221.709 492.677 221.691 492.718 221.664L495.505 219.912C495.548 219.886 495.585 219.851 495.614 219.809C495.643 219.767 495.664 219.72 495.674 219.671C495.684 219.621 495.684 219.57 495.674 219.52C495.664 219.47 495.643 219.423 495.614 219.381Z" fill="black"/>
<path opacity="0.1" d="M491.499 222.348L489.591 219.619C489.548 219.56 489.484 219.521 489.412 219.508C489.34 219.496 489.267 219.511 489.206 219.552L486.414 221.432C486.353 221.474 486.31 221.539 486.296 221.611C486.281 221.684 486.295 221.76 486.335 221.823L488.085 224.514C488.126 224.575 488.188 224.618 488.26 224.634C488.331 224.649 488.406 224.637 488.469 224.6L491.42 222.769C491.457 222.75 491.489 222.724 491.514 222.69C491.539 222.657 491.556 222.619 491.564 222.578C491.572 222.537 491.57 222.495 491.559 222.455C491.547 222.415 491.527 222.378 491.499 222.348Z" fill="black"/>
<path opacity="0.1" d="M540.848 194.18L539.195 191.83C539.102 191.703 538.964 191.617 538.81 191.59C538.656 191.563 538.497 191.596 538.366 191.683L531.916 196.206C531.791 196.297 531.705 196.432 531.675 196.584C531.646 196.735 531.675 196.893 531.757 197.024L533.312 199.429C533.357 199.495 533.414 199.552 533.481 199.597C533.548 199.641 533.623 199.672 533.701 199.687C533.78 199.702 533.861 199.702 533.94 199.686C534.018 199.67 534.093 199.638 534.159 199.593L540.707 195.01C540.833 194.916 540.917 194.777 540.943 194.623C540.969 194.468 540.935 194.31 540.848 194.18Z" fill="black"/>
<path opacity="0.1" d="M498.712 223.782L496.687 220.919C496.667 220.889 496.64 220.863 496.609 220.843C496.578 220.822 496.543 220.809 496.507 220.803C496.47 220.796 496.433 220.797 496.397 220.806C496.361 220.815 496.327 220.83 496.297 220.852L489.334 225.735C489.275 225.776 489.234 225.839 489.22 225.909C489.207 225.98 489.221 226.054 489.261 226.114L491.164 229.062C491.184 229.093 491.21 229.121 491.242 229.142C491.273 229.163 491.308 229.178 491.345 229.186C491.382 229.193 491.42 229.193 491.457 229.185C491.494 229.178 491.529 229.163 491.56 229.141L498.638 224.179C498.7 224.136 498.743 224.07 498.756 223.995C498.77 223.921 498.754 223.844 498.712 223.782Z" fill="black"/>
<path opacity="0.1" d="M520.862 201.888L518.996 199.154C518.954 199.094 518.891 199.053 518.819 199.039C518.747 199.026 518.673 199.041 518.612 199.081L503.15 209.53C503.089 209.571 503.047 209.634 503.032 209.706C503.017 209.778 503.031 209.853 503.071 209.915L504.979 212.844C505 212.876 505.026 212.904 505.057 212.925C505.088 212.946 505.124 212.961 505.161 212.968C505.198 212.976 505.236 212.976 505.273 212.968C505.31 212.96 505.345 212.945 505.376 212.924L520.789 202.279C520.819 202.258 520.845 202.232 520.865 202.201C520.885 202.17 520.899 202.135 520.906 202.099C520.913 202.063 520.913 202.025 520.905 201.989C520.897 201.953 520.883 201.919 520.862 201.888Z" fill="black"/>
</g>
<path d="M546.786 202.499L545.25 200.302C545.158 200.174 545.02 200.087 544.866 200.059C544.711 200.03 544.552 200.063 544.42 200.149L542.152 201.687C542.024 201.776 541.934 201.911 541.902 202.065C541.871 202.218 541.899 202.378 541.982 202.511L543.39 204.678C543.477 204.809 543.611 204.901 543.765 204.935C543.918 204.969 544.079 204.942 544.213 204.861L546.615 203.347C546.682 203.303 546.74 203.246 546.785 203.179C546.83 203.112 546.861 203.037 546.877 202.959C546.893 202.88 546.893 202.798 546.877 202.72C546.862 202.641 546.831 202.566 546.786 202.499Z" fill="#464A5F"/>
<path d="M542.677 205.331L541.14 203.14C541.048 203.014 540.912 202.928 540.759 202.9C540.606 202.871 540.448 202.903 540.317 202.987L538.043 204.519C537.914 204.608 537.825 204.744 537.793 204.897C537.761 205.05 537.79 205.21 537.872 205.343L539.281 207.51C539.368 207.641 539.502 207.733 539.655 207.767C539.809 207.801 539.969 207.774 540.104 207.693L542.506 206.185C542.574 206.141 542.632 206.084 542.678 206.016C542.723 205.949 542.755 205.874 542.77 205.794C542.786 205.714 542.786 205.632 542.77 205.553C542.754 205.473 542.722 205.398 542.677 205.331Z" fill="#464A5F"/>
<path d="M538.409 208.309L536.872 206.118C536.78 205.991 536.643 205.904 536.488 205.875C536.334 205.847 536.174 205.879 536.043 205.966L533.775 207.504C533.646 207.593 533.557 207.728 533.525 207.882C533.493 208.035 533.522 208.195 533.604 208.328L535.013 210.494C535.101 210.624 535.236 210.715 535.389 210.748C535.542 210.781 535.702 210.754 535.836 210.672L538.238 209.164C538.306 209.12 538.364 209.062 538.41 208.995C538.455 208.928 538.487 208.852 538.503 208.773C538.518 208.693 538.518 208.611 538.502 208.532C538.486 208.452 538.454 208.376 538.409 208.309Z" fill="#464A5F"/>
<path d="M534.056 211.318L532.519 209.121C532.427 208.995 532.291 208.91 532.138 208.881C531.985 208.853 531.827 208.884 531.696 208.969L529.422 210.507C529.355 210.552 529.298 210.61 529.254 210.678C529.209 210.745 529.179 210.821 529.164 210.901C529.149 210.98 529.151 211.062 529.168 211.141C529.185 211.22 529.217 211.295 529.263 211.361L530.672 213.528C530.759 213.659 530.893 213.751 531.047 213.785C531.2 213.819 531.36 213.793 531.495 213.711L533.891 212.197C533.962 212.153 534.023 212.094 534.07 212.024C534.117 211.955 534.149 211.876 534.165 211.794C534.18 211.711 534.178 211.627 534.16 211.545C534.141 211.463 534.105 211.386 534.056 211.318Z" fill="#464A5F"/>
<path d="M529.715 214.328L528.178 212.136C528.086 212.011 527.95 211.925 527.797 211.896C527.644 211.868 527.486 211.899 527.355 211.984L525.081 213.516C524.953 213.606 524.865 213.742 524.834 213.895C524.804 214.048 524.833 214.207 524.916 214.34L526.319 216.507C526.406 216.637 526.54 216.729 526.693 216.763C526.847 216.798 527.007 216.771 527.142 216.69L529.544 215.176C529.611 215.132 529.668 215.074 529.713 215.008C529.758 214.941 529.79 214.866 529.805 214.787C529.821 214.708 529.821 214.627 529.806 214.548C529.79 214.469 529.759 214.394 529.715 214.328Z" fill="#464A5F"/>
<path d="M525.563 217.611L523.654 214.889C523.634 214.859 523.608 214.833 523.578 214.813C523.547 214.793 523.513 214.779 523.477 214.772C523.442 214.765 523.405 214.766 523.369 214.773C523.334 214.781 523.3 214.795 523.27 214.816L520.478 216.702C520.447 216.722 520.42 216.747 520.4 216.777C520.379 216.808 520.365 216.842 520.357 216.877C520.35 216.913 520.35 216.95 520.357 216.986C520.364 217.022 520.378 217.056 520.398 217.086L522.148 219.778C522.188 219.84 522.251 219.884 522.323 219.9C522.395 219.916 522.47 219.903 522.532 219.864L525.483 218.032C525.519 218.012 525.549 217.985 525.573 217.951C525.597 217.918 525.613 217.88 525.62 217.84C525.628 217.8 525.627 217.759 525.617 217.719C525.607 217.68 525.588 217.643 525.563 217.611Z" fill="#464A5F"/>
<path d="M521.221 220.62L519.313 217.898C519.292 217.868 519.266 217.842 519.235 217.821C519.204 217.801 519.169 217.787 519.133 217.781C519.097 217.774 519.06 217.774 519.024 217.782C518.988 217.789 518.953 217.804 518.923 217.825L516.137 219.711C516.106 219.731 516.079 219.756 516.059 219.787C516.038 219.817 516.024 219.851 516.016 219.886C516.009 219.922 516.009 219.959 516.016 219.995C516.023 220.031 516.037 220.065 516.057 220.095L517.807 222.793C517.827 222.824 517.853 222.851 517.883 222.871C517.913 222.892 517.947 222.906 517.983 222.914C518.018 222.921 518.055 222.921 518.091 222.914C518.127 222.907 518.161 222.893 518.191 222.873L521.142 221.041C521.177 221.021 521.207 220.993 521.23 220.959C521.253 220.926 521.269 220.889 521.276 220.849C521.284 220.809 521.283 220.768 521.273 220.729C521.264 220.689 521.246 220.652 521.221 220.62Z" fill="#464A5F"/>
<path d="M517.374 223.288L515.466 220.559C515.423 220.5 515.359 220.461 515.288 220.448C515.216 220.435 515.142 220.451 515.082 220.492L512.289 222.348C512.228 222.39 512.186 222.454 512.171 222.527C512.156 222.6 512.17 222.676 512.21 222.738L513.96 225.43C514.001 225.491 514.064 225.533 514.135 225.549C514.207 225.565 514.281 225.553 514.344 225.515L517.295 223.684C517.327 223.664 517.354 223.637 517.376 223.606C517.397 223.575 517.412 223.54 517.419 223.503C517.426 223.466 517.426 223.428 517.419 223.391C517.411 223.354 517.396 223.319 517.374 223.288Z" fill="#464A5F"/>
<path d="M513.07 226.272L511.162 223.568C511.119 223.51 511.055 223.47 510.983 223.457C510.911 223.445 510.838 223.46 510.777 223.501L507.985 225.381C507.954 225.401 507.927 225.428 507.907 225.458C507.886 225.489 507.871 225.524 507.864 225.56C507.857 225.596 507.857 225.634 507.864 225.67C507.871 225.706 507.885 225.741 507.906 225.772L509.656 228.463C509.697 228.524 509.759 228.567 509.831 228.583C509.902 228.598 509.977 228.586 510.04 228.549L512.991 226.718C513.03 226.698 513.064 226.67 513.091 226.635C513.117 226.599 513.135 226.559 513.143 226.515C513.151 226.472 513.148 226.427 513.135 226.385C513.123 226.343 513.1 226.304 513.07 226.272Z" fill="#464A5F"/>
<path d="M508.9 229.159L506.991 226.437C506.971 226.407 506.945 226.381 506.915 226.361C506.884 226.341 506.85 226.327 506.815 226.32C506.779 226.313 506.742 226.313 506.706 226.321C506.671 226.329 506.637 226.343 506.607 226.364L503.815 228.25C503.784 228.27 503.758 228.295 503.737 228.325C503.716 228.356 503.702 228.39 503.694 228.425C503.687 228.461 503.687 228.498 503.694 228.534C503.701 228.57 503.715 228.604 503.735 228.634L505.485 231.326C505.505 231.357 505.53 231.384 505.56 231.406C505.59 231.427 505.623 231.442 505.659 231.45C505.695 231.458 505.732 231.459 505.768 231.452C505.804 231.445 505.839 231.432 505.869 231.411L508.82 229.58C508.856 229.56 508.886 229.533 508.91 229.499C508.934 229.466 508.95 229.428 508.957 229.388C508.965 229.348 508.964 229.307 508.954 229.267C508.944 229.228 508.925 229.191 508.9 229.159Z" fill="#464A5F"/>
<path d="M504.729 232.052L502.821 229.324C502.778 229.265 502.714 229.225 502.642 229.213C502.571 229.2 502.497 229.216 502.437 229.257L499.644 231.137C499.583 231.179 499.541 231.243 499.526 231.316C499.511 231.389 499.525 231.465 499.565 231.527L501.315 234.219C501.356 234.28 501.419 234.322 501.49 234.338C501.561 234.354 501.636 234.342 501.699 234.305L504.65 232.474C504.685 232.453 504.716 232.426 504.74 232.393C504.763 232.359 504.78 232.321 504.787 232.281C504.795 232.241 504.793 232.2 504.783 232.16C504.773 232.121 504.755 232.084 504.729 232.052Z" fill="#464A5F"/>
<path d="M500.559 234.939L498.651 232.217C498.63 232.187 498.604 232.161 498.574 232.141C498.544 232.121 498.51 232.107 498.474 232.1C498.438 232.093 498.401 232.094 498.366 232.101C498.33 232.109 498.296 232.123 498.266 232.144L495.474 234.03C495.443 234.05 495.417 234.075 495.396 234.106C495.376 234.136 495.361 234.17 495.354 234.206C495.346 234.241 495.346 234.278 495.353 234.314C495.36 234.35 495.374 234.384 495.395 234.414L497.145 237.106C497.164 237.137 497.189 237.164 497.219 237.186C497.249 237.207 497.283 237.222 497.319 237.23C497.354 237.238 497.392 237.239 497.428 237.232C497.464 237.226 497.498 237.212 497.529 237.192L500.48 235.361C500.515 235.34 500.546 235.313 500.569 235.28C500.593 235.246 500.609 235.208 500.617 235.168C500.624 235.128 500.623 235.087 500.613 235.047C500.603 235.008 500.585 234.971 500.559 234.939Z" fill="#464A5F"/>
<path d="M544.036 198.544L542.5 196.346C542.408 196.221 542.272 196.135 542.119 196.106C541.966 196.078 541.807 196.109 541.677 196.194L539.403 197.732C539.275 197.822 539.187 197.958 539.156 198.111C539.125 198.264 539.155 198.424 539.238 198.556L540.64 200.723C540.727 200.853 540.862 200.945 541.015 200.98C541.168 201.014 541.329 200.987 541.463 200.906L543.866 199.392C543.933 199.348 543.99 199.291 544.035 199.224C544.08 199.157 544.111 199.082 544.127 199.003C544.143 198.925 544.143 198.843 544.128 198.764C544.112 198.686 544.081 198.611 544.036 198.544Z" fill="#464A5F"/>
<path d="M538.031 189.84L536.494 187.649C536.403 187.523 536.266 187.437 536.113 187.409C535.96 187.38 535.802 187.412 535.671 187.496L533.397 189.028C533.269 189.118 533.181 189.254 533.151 189.407C533.12 189.561 533.149 189.72 533.232 189.852L534.641 192.019C534.728 192.148 534.861 192.239 535.013 192.273C535.165 192.307 535.324 192.282 535.458 192.202L537.86 190.694C537.928 190.65 537.986 190.593 538.032 190.525C538.077 190.458 538.109 190.383 538.125 190.303C538.141 190.224 538.14 190.142 538.124 190.062C538.108 189.983 538.076 189.907 538.031 189.84Z" fill="#464A5F"/>
<path d="M539.945 201.357L538.409 199.154C538.317 199.028 538.181 198.942 538.028 198.914C537.875 198.886 537.716 198.917 537.586 199.001L535.312 200.533C535.184 200.624 535.096 200.759 535.065 200.913C535.034 201.066 535.064 201.225 535.147 201.357L536.555 203.524C536.642 203.653 536.776 203.744 536.927 203.778C537.079 203.812 537.239 203.787 537.372 203.707L539.774 202.2C539.908 202.11 540.001 201.971 540.033 201.814C540.065 201.656 540.033 201.492 539.945 201.357Z" fill="#464A5F"/>
<path d="M535.653 204.33L534.141 202.139C534.049 202.013 533.913 201.927 533.76 201.899C533.607 201.87 533.449 201.902 533.318 201.986L531.044 203.518C530.914 203.608 530.825 203.745 530.794 203.9C530.764 204.055 530.794 204.215 530.879 204.348L532.281 206.515C532.369 206.645 532.504 206.736 532.657 206.769C532.811 206.801 532.971 206.774 533.104 206.692L535.507 205.184C535.573 205.138 535.629 205.079 535.672 205.011C535.715 204.943 535.744 204.867 535.758 204.788C535.771 204.708 535.769 204.627 535.751 204.548C535.733 204.47 535.7 204.395 535.653 204.33Z" fill="#464A5F"/>
<path d="M531.312 207.345L529.775 205.148C529.684 205.02 529.546 204.933 529.391 204.905C529.237 204.876 529.078 204.909 528.946 204.995L526.678 206.533C526.55 206.622 526.46 206.758 526.428 206.911C526.397 207.064 526.425 207.224 526.508 207.357L527.916 209.524C528.003 209.655 528.137 209.747 528.291 209.781C528.444 209.815 528.605 209.789 528.739 209.707L531.141 208.193C531.208 208.149 531.266 208.092 531.311 208.025C531.356 207.959 531.387 207.884 531.403 207.805C531.419 207.726 531.419 207.645 531.403 207.566C531.388 207.487 531.357 207.412 531.312 207.345Z" fill="#464A5F"/>
<path d="M534.037 192.812L532.501 190.609C532.409 190.483 532.273 190.397 532.12 190.369C531.967 190.341 531.808 190.372 531.678 190.456L529.404 191.988C529.276 192.079 529.188 192.214 529.157 192.368C529.126 192.521 529.156 192.68 529.239 192.812L530.647 194.979C530.734 195.108 530.868 195.199 531.02 195.233C531.171 195.267 531.331 195.242 531.464 195.162L533.867 193.655C534 193.565 534.093 193.426 534.125 193.269C534.157 193.111 534.126 192.947 534.037 192.812Z" fill="#464A5F"/>
<path d="M529.745 195.791L528.209 193.594C528.117 193.468 527.98 193.382 527.827 193.354C527.674 193.325 527.516 193.357 527.385 193.441L525.111 194.979C524.983 195.068 524.893 195.204 524.861 195.357C524.83 195.51 524.858 195.67 524.941 195.803L526.349 197.97C526.436 198.101 526.571 198.193 526.724 198.227C526.877 198.261 527.038 198.235 527.172 198.153L529.574 196.639C529.641 196.595 529.699 196.538 529.744 196.471C529.789 196.404 529.82 196.33 529.836 196.251C529.852 196.172 529.852 196.091 529.836 196.012C529.821 195.933 529.79 195.858 529.745 195.791Z" fill="#464A5F"/>
<path d="M525.404 198.8L523.868 196.609C523.776 196.481 523.638 196.394 523.484 196.366C523.329 196.338 523.17 196.37 523.038 196.456L520.77 197.988C520.642 198.077 520.552 198.213 520.52 198.366C520.489 198.519 520.517 198.679 520.6 198.812L522.008 200.985C522.095 201.116 522.229 201.208 522.383 201.242C522.536 201.276 522.697 201.25 522.831 201.168L525.227 199.655C525.295 199.611 525.354 199.554 525.4 199.487C525.446 199.42 525.479 199.344 525.495 199.265C525.512 199.185 525.512 199.103 525.496 199.023C525.481 198.943 525.449 198.867 525.404 198.8Z" fill="#464A5F"/>
<path d="M526.965 210.354L525.428 208.163C525.337 208.037 525.2 207.951 525.047 207.923C524.894 207.894 524.736 207.926 524.605 208.01L522.331 209.53C522.204 209.62 522.115 209.756 522.085 209.909C522.054 210.063 522.083 210.222 522.167 210.354L523.575 212.521C523.662 212.65 523.795 212.741 523.947 212.775C524.099 212.809 524.258 212.784 524.392 212.704L526.794 211.19C526.926 211.101 527.018 210.963 527.05 210.807C527.082 210.651 527.051 210.488 526.965 210.354Z" fill="#464A5F"/>
<path d="M522.624 213.363L521.087 211.172C520.996 211.046 520.859 210.96 520.706 210.932C520.553 210.904 520.395 210.935 520.264 211.019L517.99 212.582C517.861 212.671 517.772 212.806 517.74 212.96C517.708 213.113 517.737 213.273 517.819 213.406L519.228 215.573C519.315 215.703 519.449 215.796 519.603 215.83C519.756 215.864 519.917 215.837 520.051 215.756L522.453 214.248C522.525 214.204 522.588 214.145 522.636 214.075C522.684 214.006 522.717 213.927 522.733 213.843C522.749 213.76 522.748 213.674 522.729 213.592C522.71 213.509 522.674 213.431 522.624 213.363Z" fill="#464A5F"/>
<path d="M518.472 216.647L516.563 213.925C516.543 213.894 516.517 213.868 516.487 213.848C516.456 213.828 516.422 213.814 516.387 213.808C516.351 213.801 516.314 213.801 516.279 213.809C516.243 213.816 516.209 213.831 516.179 213.851L513.411 215.737C513.381 215.757 513.354 215.783 513.333 215.813C513.313 215.843 513.298 215.877 513.291 215.913C513.283 215.949 513.283 215.986 513.29 216.022C513.297 216.058 513.312 216.092 513.332 216.122L515.082 218.814C515.101 218.845 515.126 218.872 515.156 218.893C515.186 218.915 515.22 218.93 515.256 218.938C515.292 218.946 515.329 218.946 515.365 218.94C515.401 218.933 515.435 218.919 515.466 218.899L518.417 217.068C518.45 217.045 518.477 217.016 518.498 216.982C518.519 216.947 518.532 216.909 518.537 216.87C518.543 216.83 518.539 216.79 518.528 216.751C518.517 216.713 518.498 216.677 518.472 216.647Z" fill="#464A5F"/>
<path d="M514.631 219.296L512.722 216.568C512.678 216.508 512.613 216.468 512.541 216.456C512.468 216.443 512.393 216.459 512.332 216.5L509.54 218.38C509.48 218.423 509.438 218.488 509.424 218.56C509.409 218.633 509.422 218.708 509.461 218.771L511.216 221.463C511.256 221.524 511.319 221.568 511.391 221.584C511.463 221.6 511.538 221.587 511.601 221.548L514.545 219.717C514.582 219.698 514.614 219.671 514.639 219.638C514.664 219.606 514.681 219.568 514.689 219.527C514.698 219.487 514.697 219.445 514.686 219.405C514.676 219.365 514.657 219.327 514.631 219.296Z" fill="#464A5F"/>
<path d="M510.32 222.299L508.412 219.571C508.369 219.512 508.305 219.472 508.233 219.459C508.162 219.447 508.088 219.463 508.028 219.503L505.235 221.383C505.174 221.425 505.132 221.49 505.117 221.563C505.102 221.635 505.116 221.711 505.156 221.774L506.906 224.466C506.947 224.526 507.01 224.569 507.081 224.585C507.152 224.601 507.227 224.589 507.29 224.551L510.241 222.72C510.278 222.701 510.31 222.675 510.335 222.642C510.361 222.608 510.378 222.57 510.385 222.529C510.393 222.488 510.391 222.446 510.38 222.406C510.368 222.366 510.348 222.33 510.32 222.299Z" fill="#464A5F"/>
<path d="M506.156 225.186L504.266 222.464C504.246 222.433 504.22 222.407 504.189 222.387C504.159 222.367 504.125 222.353 504.089 222.346C504.053 222.34 504.017 222.34 503.981 222.348C503.945 222.355 503.912 222.37 503.882 222.39L501.089 224.276C501.029 224.317 500.986 224.381 500.971 224.452C500.957 224.524 500.97 224.599 501.01 224.661L502.76 227.353C502.8 227.414 502.863 227.458 502.935 227.474C503.006 227.49 503.082 227.477 503.144 227.438L506.095 225.607C506.13 225.586 506.16 225.558 506.182 225.524C506.205 225.49 506.219 225.451 506.225 225.411C506.231 225.371 506.228 225.329 506.216 225.291C506.204 225.252 506.183 225.216 506.156 225.186Z" fill="#464A5F"/>
<path d="M532.793 200.204L531.263 198.007C531.171 197.879 531.034 197.792 530.879 197.764C530.725 197.735 530.565 197.768 530.434 197.854L528.16 199.392C528.032 199.482 527.944 199.618 527.913 199.771C527.883 199.925 527.912 200.084 527.995 200.216L529.404 202.383C529.492 202.513 529.626 202.603 529.78 202.636C529.933 202.669 530.093 202.642 530.227 202.56L532.623 201.052C532.69 201.008 532.747 200.951 532.792 200.884C532.837 200.817 532.868 200.742 532.884 200.664C532.9 200.585 532.9 200.504 532.885 200.425C532.869 200.346 532.838 200.271 532.793 200.204Z" fill="#464A5F"/>
<path d="M528.452 203.213L526.916 201.022C526.825 200.895 526.689 200.808 526.536 200.778C526.383 200.749 526.224 200.779 526.093 200.863L523.819 202.401C523.691 202.491 523.603 202.627 523.572 202.78C523.542 202.934 523.571 203.093 523.654 203.225L525.063 205.392C525.15 205.521 525.283 205.612 525.435 205.646C525.587 205.68 525.746 205.655 525.88 205.575L528.282 204.061C528.349 204.017 528.406 203.96 528.451 203.893C528.496 203.826 528.527 203.751 528.543 203.673C528.559 203.594 528.559 203.513 528.544 203.434C528.528 203.355 528.497 203.28 528.452 203.213Z" fill="#464A5F"/>
<path d="M524.111 206.222L522.557 204.037C522.465 203.909 522.327 203.822 522.173 203.794C522.018 203.766 521.859 203.798 521.728 203.884L519.508 205.41C519.38 205.499 519.29 205.635 519.258 205.788C519.227 205.941 519.255 206.101 519.337 206.234L520.746 208.401C520.833 208.532 520.967 208.624 521.121 208.658C521.274 208.692 521.435 208.666 521.569 208.584L523.971 207.076C524.037 207.03 524.092 206.971 524.135 206.902C524.177 206.834 524.206 206.758 524.219 206.678C524.232 206.599 524.229 206.518 524.211 206.439C524.192 206.361 524.159 206.287 524.111 206.222Z" fill="#464A5F"/>
<path d="M519.764 209.231L518.228 207.04C518.136 206.914 518 206.828 517.847 206.8C517.694 206.771 517.535 206.803 517.405 206.887L515.131 208.419C515.003 208.509 514.915 208.645 514.884 208.798C514.854 208.952 514.883 209.111 514.966 209.243L516.374 211.41C516.461 211.539 516.595 211.63 516.747 211.664C516.898 211.698 517.058 211.673 517.191 211.593L519.594 210.086C519.661 210.041 519.72 209.984 519.765 209.917C519.811 209.849 519.842 209.774 519.858 209.694C519.874 209.615 519.874 209.533 519.858 209.453C519.842 209.374 519.81 209.298 519.764 209.231Z" fill="#464A5F"/>
<path d="M515.618 212.515L513.71 209.793C513.689 209.762 513.663 209.736 513.632 209.716C513.601 209.696 513.566 209.682 513.53 209.675C513.494 209.668 513.457 209.669 513.421 209.676C513.385 209.684 513.35 209.698 513.32 209.719L510.527 211.605C510.467 211.646 510.424 211.71 510.41 211.781C510.395 211.853 510.409 211.928 510.448 211.99L512.198 214.688C512.218 214.719 512.245 214.745 512.275 214.766C512.306 214.787 512.34 214.801 512.377 214.809C512.413 214.816 512.45 214.816 512.487 214.809C512.523 214.802 512.558 214.788 512.588 214.767L515.533 212.936C515.569 212.916 515.6 212.889 515.624 212.856C515.649 212.823 515.666 212.785 515.674 212.745C515.682 212.705 515.681 212.664 515.672 212.624C515.662 212.584 515.644 212.547 515.618 212.515Z" fill="#464A5F"/>
<path d="M511.771 215.182L509.863 212.46C509.843 212.43 509.817 212.404 509.786 212.384C509.756 212.363 509.722 212.35 509.686 212.343C509.65 212.336 509.614 212.336 509.578 212.344C509.542 212.351 509.509 212.366 509.479 212.387L506.705 214.267C506.643 214.309 506.601 214.373 506.586 214.446C506.571 214.519 506.585 214.594 506.625 214.657L508.375 217.349C508.416 217.409 508.479 217.452 508.55 217.468C508.622 217.484 508.697 217.472 508.759 217.434L511.71 215.603C511.744 215.582 511.773 215.553 511.795 215.519C511.817 215.485 511.831 215.447 511.837 215.407C511.843 215.367 511.84 215.326 511.829 215.287C511.817 215.248 511.798 215.213 511.771 215.182Z" fill="#464A5F"/>
<path d="M507.467 218.167L505.558 215.438C505.515 215.379 505.449 215.339 505.377 215.327C505.304 215.314 505.229 215.33 505.168 215.371L502.382 217.251C502.321 217.293 502.278 217.358 502.263 217.43C502.249 217.503 502.263 217.579 502.303 217.642L504.053 220.334C504.093 220.395 504.155 220.439 504.227 220.455C504.299 220.471 504.374 220.458 504.437 220.419L507.388 218.588C507.423 218.568 507.454 218.54 507.477 218.507C507.501 218.474 507.517 218.436 507.525 218.396C507.532 218.356 507.531 218.314 507.521 218.275C507.511 218.235 507.492 218.198 507.467 218.167Z" fill="#464A5F"/>
<path d="M503.297 221.054L501.388 218.332C501.367 218.301 501.341 218.275 501.31 218.255C501.279 218.235 501.244 218.221 501.208 218.214C501.172 218.207 501.135 218.207 501.099 218.215C501.063 218.223 501.028 218.237 500.998 218.258L498.212 220.144C498.181 220.164 498.154 220.19 498.134 220.22C498.113 220.25 498.099 220.284 498.091 220.32C498.084 220.356 498.084 220.393 498.091 220.428C498.098 220.464 498.112 220.498 498.132 220.529L499.882 223.227C499.902 223.257 499.928 223.284 499.958 223.305C499.988 223.325 500.022 223.34 500.058 223.347C500.093 223.355 500.13 223.355 500.166 223.348C500.202 223.341 500.236 223.326 500.266 223.306L503.217 221.475C503.252 221.454 503.282 221.426 503.305 221.393C503.328 221.36 503.344 221.322 503.351 221.282C503.359 221.242 503.358 221.201 503.348 221.162C503.339 221.123 503.321 221.086 503.297 221.054Z" fill="#464A5F"/>
<path d="M501.986 228.079L500.077 225.351C500.033 225.291 499.968 225.251 499.896 225.239C499.823 225.226 499.748 225.242 499.687 225.283L496.895 227.163C496.833 227.206 496.791 227.27 496.776 227.343C496.761 227.416 496.776 227.491 496.815 227.554L498.565 230.246C498.606 230.306 498.669 230.349 498.74 230.365C498.812 230.381 498.887 230.369 498.949 230.331L501.9 228.5C501.937 228.481 501.969 228.454 501.994 228.422C502.019 228.389 502.036 228.351 502.044 228.31C502.053 228.27 502.052 228.228 502.041 228.188C502.031 228.148 502.012 228.111 501.986 228.079Z" fill="#464A5F"/>
<path d="M497.815 230.966L495.907 228.244C495.886 228.213 495.86 228.187 495.829 228.167C495.798 228.147 495.763 228.133 495.727 228.126C495.691 228.119 495.654 228.12 495.618 228.127C495.581 228.135 495.547 228.15 495.517 228.171L492.724 230.057C492.664 230.098 492.621 230.161 492.606 230.233C492.592 230.304 492.606 230.379 492.645 230.441L494.395 233.133C494.415 233.164 494.441 233.191 494.471 233.213C494.502 233.234 494.536 233.249 494.572 233.257C494.609 233.265 494.646 233.266 494.683 233.259C494.719 233.252 494.754 233.238 494.785 233.218L497.73 231.387C497.767 231.368 497.799 231.341 497.824 231.309C497.849 231.276 497.866 231.238 497.874 231.197C497.882 231.157 497.881 231.115 497.871 231.075C497.861 231.035 497.842 230.998 497.815 230.966Z" fill="#464A5F"/>
<path d="M504.357 213.674L502.559 211.105C502.501 211.025 502.415 210.971 502.318 210.954C502.221 210.937 502.122 210.958 502.041 211.013L499.388 212.789C499.307 212.845 499.25 212.931 499.231 213.028C499.212 213.125 499.231 213.225 499.285 213.308L500.931 215.847C500.986 215.93 501.071 215.988 501.168 216.008C501.265 216.029 501.366 216.011 501.449 215.957L504.229 214.205C504.274 214.18 504.313 214.146 504.344 214.106C504.375 214.065 504.397 214.018 504.409 213.968C504.421 213.918 504.423 213.866 504.414 213.816C504.405 213.765 504.386 213.717 504.357 213.674Z" fill="#464A5F"/>
<path d="M500.187 216.561L498.388 213.998C498.361 213.957 498.326 213.923 498.285 213.896C498.244 213.869 498.198 213.85 498.15 213.841C498.101 213.832 498.052 213.833 498.004 213.843C497.956 213.853 497.911 213.873 497.87 213.9L495.236 215.683C495.155 215.737 495.099 215.822 495.079 215.918C495.06 216.014 495.079 216.113 495.133 216.195L496.779 218.734C496.834 218.817 496.918 218.875 497.015 218.896C497.111 218.918 497.212 218.901 497.297 218.85L500.083 217.099C500.126 217.07 500.162 217.034 500.19 216.992C500.218 216.949 500.238 216.902 500.247 216.852C500.257 216.802 500.257 216.75 500.246 216.701C500.236 216.651 500.216 216.603 500.187 216.561Z" fill="#464A5F"/>
<path d="M496.017 219.455L494.188 216.885C494.131 216.806 494.046 216.752 493.95 216.735C493.854 216.718 493.756 216.739 493.675 216.793L491.036 218.57C490.954 218.625 490.897 218.711 490.878 218.808C490.859 218.905 490.878 219.005 490.932 219.088L492.578 221.627C492.633 221.71 492.718 221.768 492.815 221.788C492.912 221.809 493.013 221.791 493.096 221.737L495.883 219.986C495.928 219.961 495.967 219.927 495.999 219.887C496.031 219.846 496.053 219.799 496.066 219.75C496.079 219.7 496.081 219.648 496.072 219.597C496.064 219.546 496.045 219.498 496.017 219.455Z" fill="#464A5F"/>
<path d="M491.907 222.427L489.999 219.699C489.955 219.639 489.89 219.599 489.817 219.587C489.745 219.574 489.67 219.59 489.609 219.632L486.816 221.511C486.756 221.555 486.715 221.619 486.701 221.692C486.688 221.765 486.703 221.84 486.743 221.902L488.493 224.594C488.533 224.656 488.596 224.699 488.668 224.715C488.74 224.731 488.815 224.718 488.877 224.679L491.828 222.848C491.864 222.828 491.894 222.8 491.918 222.767C491.942 222.734 491.958 222.696 491.965 222.656C491.973 222.616 491.972 222.575 491.962 222.535C491.952 222.496 491.933 222.459 491.907 222.427Z" fill="#464A5F"/>
<path d="M541.256 194.271L539.628 191.915C539.535 191.789 539.397 191.703 539.243 191.676C539.088 191.648 538.929 191.682 538.799 191.769L532.312 196.291C532.187 196.382 532.101 196.517 532.072 196.669C532.042 196.821 532.071 196.978 532.153 197.109L533.714 199.514C533.759 199.581 533.816 199.638 533.883 199.682C533.95 199.727 534.025 199.757 534.104 199.773C534.182 199.788 534.263 199.787 534.342 199.771C534.421 199.755 534.495 199.724 534.562 199.679L541.104 195.095C541.229 195.003 541.315 194.867 541.343 194.713C541.372 194.56 541.34 194.402 541.256 194.271Z" fill="#464A5F"/>
<path d="M499.114 223.855L497.09 220.993C497.069 220.962 497.042 220.936 497.011 220.916C496.98 220.896 496.945 220.882 496.909 220.876C496.873 220.87 496.835 220.871 496.799 220.879C496.763 220.888 496.729 220.904 496.7 220.926L489.737 225.808C489.677 225.85 489.636 225.914 489.622 225.986C489.609 226.058 489.624 226.132 489.664 226.193L491.572 229.135C491.592 229.167 491.619 229.194 491.65 229.215C491.681 229.237 491.716 229.252 491.753 229.259C491.79 229.266 491.829 229.266 491.865 229.259C491.902 229.251 491.937 229.236 491.968 229.214L499.047 224.252C499.108 224.208 499.149 224.142 499.162 224.067C499.174 223.993 499.157 223.917 499.114 223.855Z" fill="#464A5F"/>
<path d="M521.264 201.962L519.435 199.246C519.393 199.184 519.329 199.142 519.256 199.127C519.183 199.112 519.108 199.126 519.045 199.166L503.589 209.603C503.558 209.623 503.532 209.649 503.511 209.679C503.491 209.709 503.476 209.743 503.469 209.779C503.461 209.815 503.461 209.852 503.468 209.888C503.475 209.923 503.489 209.958 503.51 209.988L505.412 212.918C505.432 212.949 505.459 212.977 505.49 212.998C505.521 213.019 505.556 213.034 505.593 213.042C505.63 213.049 505.669 213.049 505.705 213.041C505.742 213.034 505.777 213.019 505.808 212.997L521.222 202.352C521.278 202.306 521.315 202.239 521.322 202.166C521.33 202.093 521.31 202.019 521.264 201.962Z" fill="#464A5F"/>
<path opacity="0.1" d="M521.337 192.635L513.119 180.678C512.891 180.346 512.542 180.117 512.147 180.042C511.752 179.967 511.343 180.051 511.009 180.276L488.371 195.492C488.204 195.605 488.062 195.749 487.951 195.918C487.84 196.086 487.764 196.274 487.726 196.472C487.688 196.67 487.689 196.873 487.73 197.071C487.77 197.268 487.85 197.455 487.963 197.622L496.34 209.921C496.453 210.088 496.597 210.231 496.765 210.342C496.934 210.452 497.122 210.529 497.32 210.566C497.518 210.604 497.721 210.602 497.918 210.56C498.115 210.518 498.302 210.438 498.468 210.324L520.947 194.753C521.112 194.64 521.253 194.496 521.362 194.328C521.471 194.16 521.545 193.972 521.582 193.776C521.618 193.579 521.615 193.377 521.573 193.181C521.531 192.985 521.451 192.8 521.337 192.635Z" fill="black"/>
<path d="M521.715 192.709L513.497 180.752C513.268 180.421 512.919 180.193 512.524 180.118C512.13 180.042 511.721 180.125 511.387 180.349L488.78 195.577C488.612 195.689 488.468 195.833 488.356 196.001C488.244 196.169 488.167 196.358 488.128 196.556C488.09 196.754 488.091 196.958 488.131 197.155C488.172 197.353 488.251 197.541 488.365 197.707L496.718 209.994C496.831 210.161 496.975 210.304 497.143 210.415C497.312 210.526 497.5 210.602 497.698 210.639C497.896 210.677 498.099 210.675 498.296 210.633C498.493 210.591 498.68 210.511 498.846 210.397L521.337 194.827C521.501 194.712 521.641 194.567 521.749 194.399C521.856 194.231 521.93 194.043 521.965 193.846C522 193.649 521.996 193.448 521.953 193.252C521.911 193.057 521.83 192.872 521.715 192.709Z" fill="#939498"/>
<path d="M572.68 212.033L555.242 206.21L499.315 245.102L516.624 250.748C517.091 250.9 517.587 250.942 518.072 250.87C518.558 250.798 519.02 250.614 519.423 250.333L572.838 213.15C572.942 213.088 573.026 212.997 573.078 212.888C573.13 212.78 573.149 212.658 573.132 212.538C573.115 212.418 573.063 212.307 572.982 212.217C572.902 212.127 572.797 212.063 572.68 212.033Z" fill="#6C63FF"/>
</g>
<defs>
<clipPath id="clip0_13:23">
<rect width="661" height="463" fill="white"/>
</clipPath>
</defs>
</svg>
